999
dxflib 3.17.0.0
  0
SECTION
  2
HEADER
  9
$ACADVER
  1
AC1015
  9
$HANDSEED
  5
FFFF
  9
$ANGBASE
 50
0.0
  9
$ANGDIR
 70
0
  9
$ATTMODE
 70
1
  9
$AUNITS
 70
0
  9
$AUPREC
 70
0
  9
$CECOLOR
 62
256
  9
$CELTSCALE
 40
1.0
  9
$CHAMFERA
 40
0.0
  9
$CHAMFERB
 40
0.0
  9
$CHAMFERC
 40
0.0
  9
$CHAMFERD
 40
0.0
  9
$CMLJUST
 70
0
  9
$CMLSCALE
 40
1.0
  9
$DIMADEC
 70
0
  9
$DIMALT
 70
0
  9
$DIMALTD
 70
2
  9
$DIMALTF
 40
25.399999999999999
  9
$DIMALTRND
 40
0.0
  9
$DIMALTTD
 70
2
  9
$DIMALTTZ
 70
0
  9
$DIMALTU
 70
2
  9
$DIMALTZ
 70
0
  9
$DIMAPOST
  1

  9
$DIMASZ
 40
2.5
  9
$DIMATFIT
 70
3
  9
$DIMAUNIT
 70
0
  9
$DIMAZIN
 70
2
  9
$DIMBLK
  1

  9
$DIMBLK1
  1

  9
$DIMBLK2
  1

  9
$DIMCEN
 40
0.09
  9
$DIMCLRD
 70
0
  9
$DIMCLRE
 70
0
  9
$DIMCLRT
 70
0
  9
$DIMDEC
 70
4
  9
$DIMDLE
 40
0.0
  9
$DIMDLI
 40
5.0
  9
$DIMDSEP
 70
46
  9
$DIMEXE
 40
1.25
  9
$DIMEXO
 40
0.625
  9
$DIMFRAC
 70
0
  9
$DIMGAP
 40
0.625
  9
$DIMJUST
 70
0
  9
$DIMLDRBLK
  1

  9
$DIMLFAC
 40
1.0
  9
$DIMLIM
 70
0
  9
$DIMLUNIT
 70
2
  9
$DIMLWD
 70
-2
  9
$DIMLWE
 70
-2
  9
$DIMPOST
  1

  9
$DIMRND
 40
0.0
  9
$DIMSAH
 70
0
  9
$DIMSCALE
 40
1.0
  9
$DIMSD1
 70
0
  9
$DIMSD2
 70
0
  9
$DIMSE1
 70
0
  9
$DIMSE2
 70
0
  9
$DIMSOXD
 70
0
  9
$DIMTAD
 70
0
  9
$DIMTDEC
 70
4
  9
$DIMTFAC
 40
1.0
  9
$DIMTIH
 70
1
  9
$DIMTIX
 70
0
  9
$DIMTM
 40
0.0
  9
$DIMTOFL
 70
0
  9
$DIMTOH
 70
1
  9
$DIMTOL
 70
0
  9
$DIMTOLJ
 70
1
  9
$DIMTP
 40
0.0
  9
$DIMTSZ
 40
0.0
  9
$DIMTVP
 40
0.0
  9
$DIMTXSTY
  7
Standard
  9
$DIMTXT
 40
2.5
  9
$DIMTZIN
 70
0
  9
$DIMUPT
 70
0
  9
$DIMZIN
 70
8
  9
$DISPSILH
 70
0
  9
$DWGCODEPAGE
  3
ANSI_1252
  9
$ELEVATION
 40
0.0
  9
$EXTMAX
 10
8620.0
 20
8855.0
 30
0.0
  9
$EXTMIN
 10
0.0
 20
0.0
 30
0.0
  9
$FILLETRAD
 40
0.5
  9
$FILLMODE
 70
1
  9
$INSBASE
 10
0.0
 20
0.0
 30
0.0
  9
$INSUNITS
 70
4
  9
$LIMCHECK
 70
0
  9
$LIMMAX
 10
12.0
 20
9.0
  9
$LIMMIN
 10
0.0
 20
0.0
  9
$LTSCALE
 40
1.0
  9
$LUNITS
 70
2
  9
$LUPREC
 70
4
  9
$MAXACTVP
 70
64
  9
$MEASUREMENT
 70
1
  9
$MIRRTEXT
 70
1
  9
$ORTHOMODE
 70
0
  9
$PDMODE
 70
0
  9
$PDSIZE
 40
0.0
  9
$PELEVATION
 40
0.0
  9
$PEXTMAX
 10
0.0
 20
0.0
 30
0.0
  9
$PEXTMIN
 10
0.0
 20
0.0
 30
0.0
  9
$PINSBASE
 10
0.0
 20
0.0
 30
0.0
  9
$PLIMCHECK
 70
0
  9
$PLIMMAX
 10
277.0
 20
202.5
  9
$PLIMMIN
 10
-20.0
 20
-7.5
  9
$PLINEGEN
 70
0
  9
$PLINEWID
 40
0.0
  9
$PROXYGRAPHICS
 70
1
  9
$PSLTSCALE
 70
1
  9
$PUCSNAME
  2

  9
$PUCSORG
 10
0.0
 20
0.0
 30
0.0
  9
$PUCSXDIR
 10
1.0
 20
0.0
 30
0.0
  9
$PUCSYDIR
 10
0.0
 20
1.0
 30
0.0
  9
$QTEXTMODE
 70
0
  9
$REGENMODE
 70
1
  9
$SHADEDGE
 70
3
  9
$SHADEDIF
 70
70
  9
$SKETCHINC
 40
0.1
  9
$SKPOLY
 70
0
  9
$SPLFRAME
 70
0
  9
$SPLINESEGS
 70
8
  9
$SPLINETYPE
 70
6
  9
$SURFTAB1
 70
6
  9
$SURFTAB2
 70
6
  9
$SURFTYPE
 70
6
  9
$SURFU
 70
6
  9
$SURFV
 70
6
  9
$TEXTSIZE
 40
0.2
  9
$TEXTSTYLE
  7
Standard
  9
$THICKNESS
 40
0.0
  9
$TILEMODE
 70
1
  9
$TRACEWID
 40
0.05
  9
$TREEDEPTH
 70
3020
  9
$UCSNAME
  2

  9
$UCSORG
 10
0.0
 20
0.0
 30
0.0
  9
$UCSXDIR
 10
1.0
 20
0.0
 30
0.0
  9
$UCSYDIR
 10
0.0
 20
1.0
 30
0.0
  9
$UNITMODE
 70
0
  9
$USERI1
 70
0
  9
$USERI2
 70
0
  9
$USERI3
 70
0
  9
$USERI4
 70
0
  9
$USERI5
 70
0
  9
$USERR1
 40
0.0
  9
$USERR2
 40
0.0
  9
$USERR3
 40
0.0
  9
$USERR4
 40
0.0
  9
$USERR5
 40
0.0
  9
$USRTIMER
 70
1
  9
$VISRETAIN
 70
1
  0
ENDSEC
  0
SECTION
  2
TABLES
  0
TABLE
  2
VPORT
  5
8
100
AcDbSymbolTable
 70
1
  0
VPORT
  5
30
100
AcDbSymbolTableRecord
100
AcDbViewportTableRecord
  2
*Active
 70
0
 10
0.0
 20
0.0
 11
1.0
 21
1.0
 12
286.30555555555549
 22
148.5
 13
0.0
 23
0.0
 14
10.0
 24
10.0
 15
10.0
 25
10.0
 16
0.0
 26
0.0
 36
1.0
 17
0.0
 27
0.0
 37
0.0
 40
297.0
 41
1.92798353909465
 42
50.0
 43
0.0
 44
0.0
 50
0.0
 51
0.0
 71
0
 72
100
 73
1
 74
3
 75
1
 76
1
 77
0
 78
0
281
0
 65
1
110
0.0
120
0.0
130
0.0
111
1.0
121
0.0
131
0.0
112
0.0
122
1.0
132
0.0
 79
0
146
0.0
  0
ENDTAB
  0
TABLE
  2
LTYPE
  5
5
100
AcDbSymbolTable
 70
50
  0
LTYPE
  5
16
100
AcDbSymbolTableRecord
100
AcDbLinetypeTableRecord
  2
Continuous
 70
0
  3
Solid line
 72
65
 73
0
 40
0.0
  0
LTYPE
  5
31
100
AcDbSymbolTableRecord
100
AcDbLinetypeTableRecord
  2
ACAD_ISO13W100
 70
0
  3
ISO double-dash double-dot __ __ . . __ __ . . _
 72
65
 73
8
 40
36.000000000000007
 49
12.0
 74
0
 49
-3.0
 74
0
 49
12.0
 74
0
 49
-2.9500000000000002
 74
0
 49
0.1
 74
0
 49
-2.9000000000000004
 74
0
 49
0.1
 74
0
 49
-2.9500000000000002
 74
0
  0
LTYPE
  5
32
100
AcDbSymbolTableRecord
100
AcDbLinetypeTableRecord
  2
DRAINAGE
 70
0
  3
Drainage ---->---->---->----
 72
65
 73
1
 40
5.0800000000000001
 49
5.0800000000000001
 74
0
  0
LTYPE
  5
33
100
AcDbSymbolTableRecord
100
AcDbLinetypeTableRecord
  2
HIDDENX2
 70
0
  3
Hidden (2x) ____ ____ ____ ____ ____ ____ ____ 
 72
65
 73
2
 40
19.049999999999997
 49
12.699999999999999
 74
0
 49
-6.3499999999999996
 74
0
  0
LTYPE
  5
34
100
AcDbSymbolTableRecord
100
AcDbLinetypeTableRecord
  2
TRACKS
 70
0
  3
Tracks -|-|-|-|-|-|-|-|-|-|-|-|-|-|-|-|-|-|-|-|-|-|-|-|-
 72
65
 73
1
 40
3.8100000000000001
 49
3.8100000000000001
 74
0
  0
LTYPE
  5
35
100
AcDbSymbolTableRecord
100
AcDbLinetypeTableRecord
  2
PHANTOM2
 70
0
  3
Phantom (.5x) ___ _ _ ___ _ _ ___ _ _ ___ _ _
 72
65
 73
6
 40
31.750000000000004
 49
15.875
 74
0
 49
-3.1749999999999998
 74
0
 49
3.1749999999999998
 74
0
 49
-3.1749999999999998
 74
0
 49
3.1749999999999998
 74
0
 49
-3.1749999999999998
 74
0
  0
LTYPE
  5
15
100
AcDbSymbolTableRecord
100
AcDbLinetypeTableRecord
  2
ByLayer
 70
0
  3

 72
65
 73
0
 40
0.0
  0
LTYPE
  5
36
100
AcDbSymbolTableRecord
100
AcDbLinetypeTableRecord
  2
ACAD_ISO11W100
 70
0
  3
ISO double-dash dot __ __ . __ __ . __ __ . __ _
 72
65
 73
6
 40
33.0
 49
12.0
 74
0
 49
-3.0
 74
0
 49
12.0
 74
0
 49
-2.9500000000000002
 74
0
 49
0.1
 74
0
 49
-2.9500000000000002
 74
0
  0
LTYPE
  5
37
100
AcDbSymbolTableRecord
100
AcDbLinetypeTableRecord
  2
DASHED2
 70
0
  3
Dashed (.5x) _ _ _ _ _ _ _ _ _ _ _ _ _ _ _ _ _ 
 72
65
 73
2
 40
9.5249999999999986
 49
6.3499999999999996
 74
0
 49
-3.1749999999999998
 74
0
  0
LTYPE
  5
38
100
AcDbSymbolTableRecord
100
AcDbLinetypeTableRecord
  2
DASHED
 70
0
  3
Dashed __ __ __ __ __ __ __ __ __ __ __ __ __ _
 72
65
 73
2
 40
19.049999999999997
 49
12.699999999999999
 74
0
 49
-6.3499999999999996
 74
0
  0
LTYPE
  5
39
100
AcDbSymbolTableRecord
100
AcDbLinetypeTableRecord
  2
DOT
 70
0
  3
Dot . . . . . . . . . . . . . . . . . . . . . . . .
 72
65
 73
2
 40
6.3499999999999996
 49
0.1
 74
0
 49
-6.25
 74
0
  0
LTYPE
  5
3A
100
AcDbSymbolTableRecord
100
AcDbLinetypeTableRecord
  2
DOTX2
 70
0
  3
Dot (2x) .  .  .  .  .  .  .  .  .  .  .  .  .  .
 72
65
 73
2
 40
12.699999999999999
 49
0.1
 74
0
 49
-12.6
 74
0
  0
LTYPE
  5
3B
100
AcDbSymbolTableRecord
100
AcDbLinetypeTableRecord
  2
CENTERX2
 70
0
  3
Center (2x) ________  __  ________  __  _____
 72
65
 73
4
 40
101.60000000000001
 49
63.5
 74
0
 49
-12.699999999999999
 74
0
 49
12.699999999999999
 74
0
 49
-12.699999999999999
 74
0
  0
LTYPE
  5
3C
100
AcDbSymbolTableRecord
100
AcDbLinetypeTableRecord
  2
HOT_WATER_SUPPLY
 70
0
  3
Hot water supply ---- HW ---- HW ---- HW ----
 72
65
 73
2
 40
17.780000000000001
 49
12.699999999999999
 74
0
 49
-5.0800000000000001
 74
0
  0
LTYPE
  5
3D
100
AcDbSymbolTableRecord
100
AcDbLinetypeTableRecord
  2
GAS_LINE
 70
0
  3
Gas line ----GAS----GAS----GAS----GAS----GAS----GAS--
 72
65
 73
2
 40
17.780000000000001
 49
12.699999999999999
 74
0
 49
-5.0800000000000001
 74
0
  0
LTYPE
  5
3E
100
AcDbSymbolTableRecord
100
AcDbLinetypeTableRecord
  2
FENCELINE2
 70
0
  3
Fenceline square ----[]-----[]----[]-----[]----[]---
 72
65
 73
2
 40
8.8900000000000006
 49
6.3499999999999996
 74
0
 49
-2.54
 74
0
  0
LTYPE
  5
3F
100
AcDbSymbolTableRecord
100
AcDbLinetypeTableRecord
  2
ACAD_ISO10W100
 70
0
  3
ISO dash dot __ . __ . __ . __ . __ . __ . __ . 
 72
65
 73
4
 40
18.0
 49
12.0
 74
0
 49
-2.9500000000000002
 74
0
 49
0.1
 74
0
 49
-2.9500000000000002
 74
0
  0
LTYPE
  5
40
100
AcDbSymbolTableRecord
100
AcDbLinetypeTableRecord
  2
CENTER
 70
0
  3
Center ____ _ ____ _ ____ _ ____ _ ____ _ ____
 72
65
 73
4
 40
50.800000000000004
 49
31.75
 74
0
 49
-6.3499999999999996
 74
0
 49
6.3499999999999996
 74
0
 49
-6.3499999999999996
 74
0
  0
LTYPE
  5
41
100
AcDbSymbolTableRecord
100
AcDbLinetypeTableRecord
  2
ACAD_ISO04W100
 70
0
  3
ISO long-dash dot ____ . ____ . ____ . ____ . _
 72
65
 73
4
 40
30.0
 49
24.0
 74
0
 49
-2.9500000000000002
 74
0
 49
0.1
 74
0
 49
-2.9500000000000002
 74
0
  0
LTYPE
  5
42
100
AcDbSymbolTableRecord
100
AcDbLinetypeTableRecord
  2
DIVIDEX2
 70
0
  3
Divide (2x) ________  .  .  ________  .  .  _
 72
65
 73
6
 40
63.5
 49
25.399999999999999
 74
0
 49
-12.649999999999999
 74
0
 49
0.1
 74
0
 49
-12.599999999999998
 74
0
 49
0.1
 74
0
 49
-12.649999999999999
 74
0
  0
LTYPE
  5
43
100
AcDbSymbolTableRecord
100
AcDbLinetypeTableRecord
  2
DASHEDX2
 70
0
  3
Dashed (2x) ____  ____  ____  ____  ____  ___
 72
65
 73
2
 40
38.099999999999994
 49
25.399999999999999
 74
0
 49
-12.699999999999999
 74
0
  0
LTYPE
  5
44
100
AcDbSymbolTableRecord
100
AcDbLinetypeTableRecord
  2
DASHDOTX2
 70
0
  3
Dash dot (2x) ____  .  ____  .  ____  .  ___
 72
65
 73
4
 40
50.799999999999997
 49
25.399999999999999
 74
0
 49
-12.649999999999999
 74
0
 49
0.1
 74
0
 49
-12.649999999999999
 74
0
  0
LTYPE
  5
45
100
AcDbSymbolTableRecord
100
AcDbLinetypeTableRecord
  2
ACAD_ISO08W100
 70
0
  3
ISO long-dash short-dash ____ __ ____ __ ____ _
 72
65
 73
4
 40
36.0
 49
24.0
 74
0
 49
-3.0
 74
0
 49
6.0
 74
0
 49
-3.0
 74
0
  0
LTYPE
  5
46
100
AcDbSymbolTableRecord
100
AcDbLinetypeTableRecord
  2
ACAD_ISO14W100
 70
0
  3
ISO dash triple-dot __ . . . __ . . . __ . . . _
 72
65
 73
8
 40
24.000000000000004
 49
12.0
 74
0
 49
-2.9500000000000002
 74
0
 49
0.1
 74
0
 49
-2.9000000000000004
 74
0
 49
0.1
 74
0
 49
-2.9000000000000004
 74
0
 49
0.1
 74
0
 49
-2.9500000000000002
 74
0
  0
LTYPE
  5
47
100
AcDbSymbolTableRecord
100
AcDbLinetypeTableRecord
  2
ACAD_ISO15W100
 70
0
  3
ISO double-dash triple-dot __ __ . . . __ __ . .
 72
65
 73
10
 40
39.000000000000007
 49
12.0
 74
0
 49
-3.0
 74
0
 49
12.0
 74
0
 49
-2.9500000000000002
 74
0
 49
0.1
 74
0
 49
-2.9000000000000004
 74
0
 49
0.1
 74
0
 49
-2.9000000000000004
 74
0
 49
0.1
 74
0
 49
-2.9500000000000002
 74
0
  0
LTYPE
  5
48
100
AcDbSymbolTableRecord
100
AcDbLinetypeTableRecord
  2
BORDERX2
 70
0
  3
Border (2x) ____  ____  .  ____  ____  .  ___
 72
65
 73
6
 40
88.899999999999977
 49
25.399999999999999
 74
0
 49
-12.699999999999999
 74
0
 49
25.399999999999999
 74
0
 49
-12.649999999999999
 74
0
 49
0.1
 74
0
 49
-12.649999999999999
 74
0
  0
LTYPE
  5
49
100
AcDbSymbolTableRecord
100
AcDbLinetypeTableRecord
  2
PHANTOMX2
 70
0
  3
Phantom (2x) ____________    ____    ____   _
 72
65
 73
6
 40
127.00000000000001
 49
63.5
 74
0
 49
-12.699999999999999
 74
0
 49
12.699999999999999
 74
0
 49
-12.699999999999999
 74
0
 49
12.699999999999999
 74
0
 49
-12.699999999999999
 74
0
  0
LTYPE
  5
4A
100
AcDbSymbolTableRecord
100
AcDbLinetypeTableRecord
  2
DRAINAGE2
 70
0
  3
Drainage reversed----<----<----<----
 72
65
 73
1
 40
5.0800000000000001
 49
5.0800000000000001
 74
0
  0
LTYPE
  5
4B
100
AcDbSymbolTableRecord
100
AcDbLinetypeTableRecord
  2
FENCELINE1
 70
0
  3
Fenceline circle ----0-----0----0-----0----0-----0--
 72
65
 73
2
 40
8.8900000000000006
 49
6.3499999999999996
 74
0
 49
-2.54
 74
0
  0
LTYPE
  5
4C
100
AcDbSymbolTableRecord
100
AcDbLinetypeTableRecord
  2
BORDER
 70
0
  3
Border __ __ . __ __ . __ __ . __ __ . __ __ .
 72
65
 73
6
 40
44.449999999999996
 49
12.699999999999999
 74
0
 49
-6.3499999999999996
 74
0
 49
12.699999999999999
 74
0
 49
-6.2999999999999998
 74
0
 49
0.1
 74
0
 49
-6.2999999999999998
 74
0
  0
LTYPE
  5
14
100
AcDbSymbolTableRecord
100
AcDbLinetypeTableRecord
  2
ByBlock
 70
0
  3

 72
65
 73
0
 40
0.0
  0
LTYPE
  5
4D
100
AcDbSymbolTableRecord
100
AcDbLinetypeTableRecord
  2
DOT2
 70
0
  3
Dot (.5x) ........................................
 72
65
 73
2
 40
3.1749999999999998
 49
0.1
 74
0
 49
-3.0749999999999997
 74
0
  0
LTYPE
  5
4E
100
AcDbSymbolTableRecord
100
AcDbLinetypeTableRecord
  2
ACAD_ISO02W100
 70
0
  3
ISO dash __ __ __ __ __ __ __ __ __ __ __ __ __
 72
65
 73
2
 40
15.0
 49
12.0
 74
0
 49
-3.0
 74
0
  0
LTYPE
  5
4F
100
AcDbSymbolTableRecord
100
AcDbLinetypeTableRecord
  2
HIDDEN2
 70
0
  3
Hidden (.5x) _ _ _ _ _ _ _ _ _ _ _ _ _ _ _ _ _ 
 72
65
 73
2
 40
4.7624999999999993
 49
3.1749999999999998
 74
0
 49
-1.5874999999999999
 74
0
  0
LTYPE
  5
50
100
AcDbSymbolTableRecord
100
AcDbLinetypeTableRecord
  2
HIDDEN
 70
0
  3
Hidden __ __ __ __ __ __ __ __ __ __ __ __ __ __
 72
65
 73
2
 40
9.5249999999999986
 49
6.3499999999999996
 74
0
 49
-3.1749999999999998
 74
0
  0
LTYPE
  5
51
100
AcDbSymbolTableRecord
100
AcDbLinetypeTableRecord
  2
ACAD_ISO06W100
 70
0
  3
ISO long-dash triple-dot ____ ... ____ ... ____
 72
65
 73
8
 40
36.000000000000007
 49
24.0
 74
0
 49
-2.9500000000000002
 74
0
 49
0.1
 74
0
 49
-2.9000000000000004
 74
0
 49
0.1
 74
0
 49
-2.9000000000000004
 74
0
 49
0.1
 74
0
 49
-2.9500000000000002
 74
0
  0
LTYPE
  5
52
100
AcDbSymbolTableRecord
100
AcDbLinetypeTableRecord
  2
DIVIDE2
 70
0
  3
Divide (.5x) __..__..__..__..__..__..__..__.._
 72
65
 73
6
 40
15.874999999999998
 49
6.3499999999999996
 74
0
 49
-3.125
 74
0
 49
0.1
 74
0
 49
-3.0750000000000002
 74
0
 49
0.1
 74
0
 49
-3.125
 74
0
  0
LTYPE
  5
53
100
AcDbSymbolTableRecord
100
AcDbLinetypeTableRecord
  2
ZIGZAG
 70
0
  3
Zig zag /\/\/\/\/\/\/\/\/\/\/\/\/\/\/\/\/\/\/\/\/\/\/\/
 72
65
 73
2
 40
5.0825399999999998
 49
0.00254
 74
0
 49
-5.0800000000000001
 74
0
  0
LTYPE
  5
54
100
AcDbSymbolTableRecord
100
AcDbLinetypeTableRecord
  2
ACAD_ISO12W100
 70
0
  3
ISO dash double-dot __ . . __ . . __ . . __ . . 
 72
65
 73
6
 40
21.0
 49
12.0
 74
0
 49
-2.9500000000000002
 74
0
 49
0.1
 74
0
 49
-2.9000000000000004
 74
0
 49
0.1
 74
0
 49
-2.9500000000000002
 74
0
  0
LTYPE
  5
55
100
AcDbSymbolTableRecord
100
AcDbLinetypeTableRecord
  2
ACAD_ISO03W100
 70
0
  3
ISO dash space __    __    __    __    __    __
 72
65
 73
2
 40
30.0
 49
12.0
 74
0
 49
-18.0
 74
0
  0
LTYPE
  5
56
100
AcDbSymbolTableRecord
100
AcDbLinetypeTableRecord
  2
BORDER2
 70
0
  3
Border (.5x) __.__.__.__.__.__.__.__.__.__.__.
 72
65
 73
6
 40
22.225000000000001
 49
6.3499999999999996
 74
0
 49
-3.1749999999999998
 74
0
 49
6.3499999999999996
 74
0
 49
-3.125
 74
0
 49
0.1
 74
0
 49
-3.125
 74
0
  0
LTYPE
  5
57
100
AcDbSymbolTableRecord
100
AcDbLinetypeTableRecord
  2
DASHDOT
 70
0
  3
Dash dot __ . __ . __ . __ . __ . __ . __ . __
 72
65
 73
4
 40
25.400000000000002
 49
12.699999999999999
 74
0
 49
-6.2999999999999998
 74
0
 49
0.1
 74
0
 49
-6.2999999999999998
 74
0
  0
LTYPE
  5
58
100
AcDbSymbolTableRecord
100
AcDbLinetypeTableRecord
  2
DASHDOT2
 70
0
  3
Dash dot (.5x) _._._._._._._._._._._._._._._.
 72
65
 73
4
 40
12.699999999999999
 49
6.3499999999999996
 74
0
 49
-3.125
 74
0
 49
0.1
 74
0
 49
-3.125
 74
0
  0
LTYPE
  5
59
100
AcDbSymbolTableRecord
100
AcDbLinetypeTableRecord
  2
CENTER2
 70
0
  3
Center (.5x) ___ _ ___ _ ___ _ ___ _ ___ _ ___
 72
65
 73
4
 40
28.575000000000003
 49
19.050000000000001
 74
0
 49
-3.1749999999999998
 74
0
 49
3.1749999999999998
 74
0
 49
-3.1749999999999998
 74
0
  0
LTYPE
  5
5A
100
AcDbSymbolTableRecord
100
AcDbLinetypeTableRecord
  2
PHANTOM
 70
0
  3
Phantom ______  __  __  ______  __  __  ______ 
 72
65
 73
6
 40
63.500000000000007
 49
31.75
 74
0
 49
-6.3499999999999996
 74
0
 49
6.3499999999999996
 74
0
 49
-6.3499999999999996
 74
0
 49
6.3499999999999996
 74
0
 49
-6.3499999999999996
 74
0
  0
LTYPE
  5
5B
100
AcDbSymbolTableRecord
100
AcDbLinetypeTableRecord
  2
ACAD_ISO05W100
 70
0
  3
ISO long-dash double-dot ____ .. ____ .. ____ . 
 72
65
 73
6
 40
33.000000000000007
 49
24.0
 74
0
 49
-2.9500000000000002
 74
0
 49
0.1
 74
0
 49
-2.9000000000000004
 74
0
 49
0.1
 74
0
 49
-2.9500000000000002
 74
0
  0
LTYPE
  5
5C
100
AcDbSymbolTableRecord
100
AcDbLinetypeTableRecord
  2
ACAD_ISO09W100
 70
0
  3
ISO long-dash double-short-dash ____ __ __ ____
 72
65
 73
6
 40
45.0
 49
24.0
 74
0
 49
-3.0
 74
0
 49
6.0
 74
0
 49
-3.0
 74
0
 49
6.0
 74
0
 49
-3.0
 74
0
  0
LTYPE
  5
5D
100
AcDbSymbolTableRecord
100
AcDbLinetypeTableRecord
  2
BATTING
 70
0
  3
Batting SSSSSSSSSSSSSSSSSSSSSSSSSSSSSSSSSSSSSSSSSSSSSSS
 72
65
 73
2
 40
2.5425400000000002
 49
0.00254
 74
0
 49
-2.54
 74
0
  0
LTYPE
  5
5E
100
AcDbSymbolTableRecord
100
AcDbLinetypeTableRecord
  2
DIVIDE
 70
0
  3
Divide ____ . . ____ . . ____ . . ____ . . ____
 72
65
 73
6
 40
31.750000000000004
 49
12.699999999999999
 74
0
 49
-6.2999999999999998
 74
0
 49
0.1
 74
0
 49
-6.25
 74
0
 49
0.1
 74
0
 49
-6.2999999999999998
 74
0
  0
LTYPE
  5
5F
100
AcDbSymbolTableRecord
100
AcDbLinetypeTableRecord
  2
ACAD_ISO07W100
 70
0
  3
ISO dot . . . . . . . . . . . . . . . . . . . . 
 72
65
 73
2
 40
3.0
 49
0.1
 74
0
 49
-2.8999999999999999
 74
0
  0
ENDTAB
  0
TABLE
  2
LAYER
  5
2
100
AcDbSymbolTable
 70
1
  0
LAYER
  5
10
100
AcDbSymbolTableRecord
100
AcDbLayerTableRecord
  2
0
 70
0
 62
7
420
0
  6
Continuous
370
25
390
F
  0
ENDTAB
  0
TABLE
  2
STYLE
  5
3
100
AcDbSymbolTable
 70
8
  0
STYLE
  5
60
100
AcDbSymbolTableRecord
100
AcDbTextStyleTableRecord
  2
Standard
 70
0
 40
0.0
 41
1.0
 50
0.0
 71
0
 42
2.5
  3

  4

1001
ACAD
1000
txt
1071
0
  0
STYLE
  5
61
100
AcDbSymbolTableRecord
100
AcDbTextStyleTableRecord
  2
textstyle0
 70
0
 40
0.0
 41
1.0
 50
0.0
 71
0
 42
7.5
  3

  4

1001
ACAD
1000
unicode
1071
0
  0
STYLE
  5
62
100
AcDbSymbolTableRecord
100
AcDbTextStyleTableRecord
  2
textstyle1
 70
0
 40
0.0
 41
1.0
 50
0.0
 71
0
 42
15.0
  3

  4

1001
ACAD
1000
unicode
1071
0
  0
STYLE
  5
63
100
AcDbSymbolTableRecord
100
AcDbTextStyleTableRecord
  2
textstyle2
 70
0
 40
0.0
 41
1.0
 50
0.0
 71
0
 42
7.5
  3

  4

1001
ACAD
1000
unicode
1071
0
  0
STYLE
  5
64
100
AcDbSymbolTableRecord
100
AcDbTextStyleTableRecord
  2
textstyle3
 70
0
 40
0.0
 41
1.0
 50
0.0
 71
0
 42
7.5
  3

  4

1001
ACAD
1000
unicode
1071
0
  0
STYLE
  5
65
100
AcDbSymbolTableRecord
100
AcDbTextStyleTableRecord
  2
textstyle4
 70
0
 40
0.0
 41
1.0
 50
0.0
 71
0
 42
7.5
  3

  4

1001
ACAD
1000
unicode
1071
0
  0
STYLE
  5
66
100
AcDbSymbolTableRecord
100
AcDbTextStyleTableRecord
  2
textstyle5
 70
0
 40
0.0
 41
1.0
 50
0.0
 71
0
 42
7.5
  3

  4

1001
ACAD
1000
unicode
1071
0
  0
STYLE
  5
67
100
AcDbSymbolTableRecord
100
AcDbTextStyleTableRecord
  2
textstyle6
 70
0
 40
0.0
 41
1.0
 50
0.0
 71
0
 42
10.0
  3

  4

1001
ACAD
1000
Arial
1071
0
  0
ENDTAB
  0
TABLE
  2
VIEW
  5
6
100
AcDbSymbolTable
 70
0
  0
ENDTAB
  0
TABLE
  2
UCS
  5
7
100
AcDbSymbolTable
 70
0
  0
ENDTAB
  0
TABLE
  2
APPID
  5
9
100
AcDbSymbolTable
 70
1
  0
APPID
  5
12
100
AcDbSymbolTableRecord
100
AcDbRegAppTableRecord
  2
ACAD
 70
0
  0
APPID
  5
68
100
AcDbSymbolTableRecord
100
AcDbRegAppTableRecord
  2
QCAD
 70
0
  0
ENDTAB
  0
TABLE
  2
DIMSTYLE
  5
A
100
AcDbSymbolTable
 70
1
100
AcDbDimStyleTable
 71
0
  0
DIMSTYLE
105
27
100
AcDbSymbolTableRecord
100
AcDbDimStyleTableRecord
  2
Standard
 41
2.5
 42
0.625
 43
3.75
 44
1.25
 70
0
 73
0
 74
0
 77
1
 78
8
140
2.5
141
2.5
143
0.03937007874016
147
0.625
171
3
172
1
271
2
272
2
274
3
278
44
283
0
284
8
340
60
  0
ENDTAB
  0
TABLE
  2
BLOCK_RECORD
  5
1
100
AcDbSymbolTable
 70
1
  0
BLOCK_RECORD
  5
1F
100
AcDbSymbolTableRecord
100
AcDbBlockTableRecord
  2
*Model_Space
340
22
  0
BLOCK_RECORD
  5
1B
100
AcDbSymbolTableRecord
100
AcDbBlockTableRecord
  2
*Paper_Space
340
1E
  0
BLOCK_RECORD
  5
23
100
AcDbSymbolTableRecord
100
AcDbBlockTableRecord
  2
*Paper_Space0
340
26
  0
ENDTAB
  0
ENDSEC
  0
SECTION
  2
BLOCKS
  0
BLOCK
  5
20
100
AcDbEntity
  8
0
100
AcDbBlockBegin
  2
*Model_Space
 70
0
 10
0.0
 20
0.0
 30
0.0
  3
*Model_Space
  1

  0
ENDBLK
  5
21
100
AcDbEntity
  8
0
100
AcDbBlockEnd
  0
BLOCK
  5
1C
100
AcDbEntity
 67
1
  8
0
100
AcDbBlockBegin
  2
*Paper_Space
 70
0
 10
0.0
 20
0.0
 30
0.0
  3
*Paper_Space
  1

  0
ENDBLK
  5
1D
100
AcDbEntity
 67
1
  8
0
100
AcDbBlockEnd
  0
BLOCK
  5
24
100
AcDbEntity
  8
0
100
AcDbBlockBegin
  2
*Paper_Space0
 70
0
 10
0.0
 20
0.0
 30
0.0
  3
*Paper_Space0
  1

  0
ENDBLK
  5
25
100
AcDbEntity
  8
0
100
AcDbBlockEnd
  0
ENDSEC
  0
SECTION
  2
ENTITIES
  0
LINE
  5
69
100
AcDbEntity
  8
0
 62
256
370
211
 48
1.0
  6
ByLayer
100
AcDbLine
 10
144.13203779340245
 20
281.79052945468027
 30
0.0
 11
195.38203779340245
 21
281.79052945468027
 31
0.0
  0
LINE
  5
6A
100
AcDbEntity
  8
0
 62
256
370
211
 48
1.0
  6
ByLayer
100
AcDbLine
 10
247.13203779340245
 20
281.79052945468027
 30
0.0
 11
293.63203779340245
 21
281.79052945468027
 31
0.0
  0
LINE
  5
6B
100
AcDbEntity
  8
0
 62
256
370
0
 48
1.0
  6
Continuous
100
AcDbLine
 10
275.0
 20
65.0
 30
0.0
 11
80.0
 21
65.0
 31
0.0
  0
LINE
  5
6C
100
AcDbEntity
  8
0
 62
256
370
211
 48
1.0
  6
ByLayer
100
AcDbLine
 10
293.63203779340245
 20
281.79052945468027
 30
0.0
 11
293.63203779340245
 21
364.79052945468027
 31
0.0
  0
LINE
  5
6D
100
AcDbEntity
  8
0
 62
256
370
211
 48
1.0
  6
ByLayer
100
AcDbLine
 10
293.63203779340245
 20
364.79052945468027
 30
0.0
 11
351.13203779340245
 21
364.79052945468027
 31
0.0
  0
LINE
  5
6E
100
AcDbEntity
  8
0
 62
256
370
211
 48
1.0
  6
ByLayer
100
AcDbLine
 10
396.13203779340245
 20
364.79052945468027
 30
0.0
 11
575.13203779340233
 21
364.79052945468027
 31
0.0
  0
LINE
  5
6F
100
AcDbEntity
  8
0
 62
256
370
211
 48
1.0
  6
ByLayer
100
AcDbLine
 10
575.13203779340233
 20
364.79052945468027
 30
0.0
 11
575.13203779340233
 21
750.09729670563593
 31
0.0
  0
LINE
  5
70
100
AcDbEntity
  8
0
 62
256
370
18
 48
1.0
  6
Continuous
100
AcDbLine
 10
20.0
 20
911.00000000000011
 30
0.0
 11
650.0
 21
911.00000000000011
 31
0.0
  0
LINE
  5
71
100
AcDbEntity
  8
0
 62
256
370
18
 48
1.0
  6
Continuous
100
AcDbLine
 10
650.0
 20
911.00000000000011
 30
0.0
 11
649.99999999999977
 21
20.0
 31
0.0
  0
LINE
  5
72
100
AcDbEntity
  8
0
 62
256
370
211
 48
1.0
  6
ByLayer
100
AcDbLine
 10
428.13203826373558
 20
724.540529705636
 30
0.0
 11
396.13203826373558
 21
724.540529705636
 31
0.0
  0
LINE
  5
73
100
AcDbEntity
  8
0
 62
256
370
18
 48
1.0
  6
Continuous
100
AcDbLine
 10
650.0
 20
19.999999999999886
 30
0.0
 11
20.0
 21
20.0
 31
0.0
  0
LINE
  5
74
100
AcDbEntity
  8
0
 62
256
370
18
 48
1.0
  6
Continuous
100
AcDbLine
 10
20.0
 20
20.0
 30
0.0
 11
20.0
 21
911.00000000000011
 31
0.0
  0
LINE
  5
75
100
AcDbEntity
  8
0
 62
256
370
211
 48
1.0
  6
ByLayer
100
AcDbLine
 10
396.13203826373558
 20
730.040529705636
 30
0.0
 11
382.63203826373558
 21
730.040529705636
 31
0.0
  0
LINE
  5
76
100
AcDbEntity
  8
0
 62
256
370
211
 48
1.0
  6
ByLayer
100
AcDbLine
 10
279.13203826373558
 20
724.54052970563589
 30
0.0
 11
264.13203779340245
 21
724.54052970563589
 31
0.0
  0
LINE
  5
77
100
AcDbEntity
  8
0
 62
256
370
211
 48
1.0
  6
ByLayer
100
AcDbLine
 10
144.13203779340245
 20
750.09729670563593
 30
0.0
 11
144.13203779340245
 21
281.79052945468027
 31
0.0
  0
LINE
  5
78
100
AcDbEntity
  8
0
 62
256
370
158
 48
1.0
  6
Continuous
100
AcDbLine
 10
80.0
 20
896.00000000000011
 30
0.0
 11
635.0
 21
896.00000000000011
 31
0.0
  0
LINE
  5
79
100
AcDbEntity
  8
0
 62
256
370
211
 48
1.0
  6
ByLayer
100
AcDbLine
 10
159.13203779340245
 20
403.54052945468027
 30
0.0
 11
212.13203779340245
 21
403.54052945468027
 31
0.0
  0
LINE
  5
7A
100
AcDbEntity
  8
0
 62
256
370
158
 48
1.0
  6
Continuous
100
AcDbLine
 10
635.0
 20
896.00000000000011
 30
0.0
 11
634.99999999999977
 21
35.0
 31
0.0
  0
LINE
  5
7B
100
AcDbEntity
  8
0
 62
256
370
211
 48
1.0
  6
ByLayer
100
AcDbLine
 10
212.13203779340245
 20
403.54052945468027
 30
0.0
 11
212.13203779340245
 21
433.54052945468027
 31
0.0
  0
LINE
  5
7C
100
AcDbEntity
  8
0
 62
256
370
158
 48
1.0
  6
Continuous
100
AcDbLine
 10
635.0
 20
34.999999999999886
 30
0.0
 11
80.0
 21
35.0
 31
0.0
  0
LINE
  5
7D
100
AcDbEntity
  8
0
 62
256
370
211
 48
1.0
  6
ByLayer
100
AcDbLine
 10
212.13203779340245
 20
433.54052945468027
 30
0.0
 11
159.13203779340245
 21
433.54052945468027
 31
0.0
  0
LINE
  5
7E
100
AcDbEntity
  8
0
 62
256
370
158
 48
1.0
  6
Continuous
100
AcDbLine
 10
80.0
 20
35.0
 30
0.0
 11
80.0
 21
896.00000000000011
 31
0.0
  0
LINE
  5
7F
100
AcDbEntity
  8
0
 62
256
370
211
 48
1.0
  6
ByLayer
100
AcDbLine
 10
159.13203779340245
 20
433.54052945468027
 30
0.0
 11
159.13203779340245
 21
403.54052945468027
 31
0.0
  0
LINE
  5
80
100
AcDbEntity
  8
0
 62
256
370
211
 48
1.0
  6
ByLayer
100
AcDbLine
 10
430.13203779340233
 20
428.29052945468027
 30
0.0
 11
409.63203779340233
 21
428.29052945468027
 31
0.0
  0
LINE
  5
81
100
AcDbEntity
  8
0
 62
256
370
211
 48
1.0
  6
ByLayer
100
AcDbLine
 10
409.63203779340233
 20
428.29052945468027
 30
0.0
 11
409.63203779340233
 21
468.79052945468027
 31
0.0
  0
LINE
  5
82
100
AcDbEntity
  8
0
 62
256
370
211
 48
1.0
  6
ByLayer
100
AcDbLine
 10
409.63203779340233
 20
468.79052945468027
 30
0.0
 11
430.13203779340233
 21
468.79052945468027
 31
0.0
  0
LINE
  5
83
100
AcDbEntity
  8
0
 62
256
370
211
 48
1.0
  6
ByLayer
100
AcDbLine
 10
430.13203779340233
 20
468.79052945468027
 30
0.0
 11
430.13203779340233
 21
428.29052945468027
 31
0.0
  0
LINE
  5
84
100
AcDbEntity
  8
0
 62
256
370
211
 48
1.0
  6
ByLayer
100
AcDbLine
 10
299.63203779340245
 20
358.79052945468027
 30
0.0
 11
299.63203779340245
 21
281.79052945468027
 31
0.0
  0
LINE
  5
85
100
AcDbEntity
  8
0
 62
256
370
211
 48
1.0
  6
ByLayer
100
AcDbLine
 10
388.13203779340245
 20
281.79052945468027
 30
0.0
 11
299.63203779340245
 21
281.79052945468027
 31
0.0
  0
LINE
  5
86
100
AcDbEntity
  8
0
 62
256
370
211
 48
1.0
  6
ByLayer
100
AcDbLine
 10
388.13203779340245
 20
281.79052945468027
 30
0.0
 11
388.13203779340245
 21
246.79052945468027
 31
0.0
  0
LINE
  5
87
100
AcDbEntity
  8
0
 62
256
370
50
 48
1.0
  6
Continuous
100
AcDbLine
 10
275.0
 20
50.0
 30
0.0
 11
80.0
 21
50.0
 31
0.0
  0
LINE
  5
88
100
AcDbEntity
  8
0
 62
256
370
211
 48
1.0
  6
ByLayer
100
AcDbLine
 10
388.13203779340245
 20
246.79052945468027
 30
0.0
 11
493.63203779340233
 21
246.79052945468027
 31
0.0
  0
LINE
  5
89
100
AcDbEntity
  8
0
 62
256
370
158
 48
1.0
  6
Continuous
100
AcDbLine
 10
634.99999999999977
 20
80.0
 30
0.0
 11
79.999999999999773
 21
80.0
 31
0.0
  0
LINE
  5
8A
100
AcDbEntity
  8
0
 62
256
370
211
 48
1.0
  6
ByLayer
100
AcDbLine
 10
493.63203779340233
 20
246.79052945468027
 30
0.0
 11
493.63203779340233
 21
338.29052945468027
 31
0.0
  0
LINE
  5
8B
100
AcDbEntity
  8
0
 62
256
370
50
 48
1.0
  6
Continuous
100
AcDbLine
 10
114.0
 20
35.0
 30
0.0
 11
114.0
 21
80.0
 31
0.0
  0
LINE
  5
8C
100
AcDbEntity
  8
0
 62
256
370
211
 48
1.0
  6
ByLayer
100
AcDbLine
 10
493.63203779340233
 20
338.29052945468027
 30
0.0
 11
463.63203779340233
 21
338.29052945468027
 31
0.0
  0
LINE
  5
8D
100
AcDbEntity
  8
0
 62
256
370
50
 48
1.0
  6
Continuous
100
AcDbLine
 10
173.25471231517713
 20
35.0
 30
0.0
 11
173.25471231517713
 21
80.0
 31
0.0
  0
LINE
  5
8E
100
AcDbEntity
  8
0
 62
256
370
211
 48
1.0
  6
ByLayer
100
AcDbLine
 10
463.63203779340233
 20
338.29052945468027
 30
0.0
 11
463.63203779340233
 21
358.29052945468027
 31
0.0
  0
LINE
  5
8F
100
AcDbEntity
  8
0
 62
256
370
211
 48
1.0
  6
ByLayer
100
AcDbLine
 10
463.63203779340233
 20
358.29052945468027
 30
0.0
 11
396.13203779340245
 21
358.29052945468027
 31
0.0
  0
LINE
  5
90
100
AcDbEntity
  8
0
 62
256
370
50
 48
1.0
  6
Continuous
100
AcDbLine
 10
240.0
 20
34.999999999999886
 30
0.0
 11
240.0
 21
79.999999999999886
 31
0.0
  0
LINE
  5
91
100
AcDbEntity
  8
0
 62
256
370
211
 48
1.0
  6
ByLayer
100
AcDbLine
 10
299.63203779340245
 20
358.79052945468027
 30
0.0
 11
351.13203779340245
 21
358.79052945468027
 31
0.0
  0
LINE
  5
92
100
AcDbEntity
  8
0
 62
256
370
158
 48
1.0
  6
Continuous
100
AcDbLine
 10
275.0
 20
35.0
 30
0.0
 11
275.0
 21
80.0
 31
0.0
  0
LINE
  5
93
100
AcDbEntity
  8
0
 62
256
370
211
 48
1.0
  6
ByLayer
100
AcDbLine
 10
351.13203779340245
 20
364.79052945468027
 30
0.0
 11
351.13203779340245
 21
358.79052945468027
 31
0.0
  0
LINE
  5
94
100
AcDbEntity
  8
0
 62
256
370
158
 48
1.0
  6
Continuous
100
AcDbLine
 10
604.99999999999977
 20
80.0
 30
0.0
 11
604.99999999999977
 21
35.0
 31
0.0
  0
LINE
  5
95
100
AcDbEntity
  8
0
 62
256
370
211
 48
1.0
  6
ByLayer
100
AcDbLine
 10
396.13203779340245
 20
364.79052945468027
 30
0.0
 11
396.13203779340245
 21
358.29052945468027
 31
0.0
  0
LINE
  5
96
100
AcDbEntity
  8
0
 62
256
370
158
 48
1.0
  6
Continuous
100
AcDbLine
 10
634.99999999999977
 20
64.0
 30
0.0
 11
604.99999999999977
 21
64.0
 31
0.0
  0
LINE
  5
97
100
AcDbEntity
  8
0
 62
256
370
158
 48
1.0
  6
Continuous
100
AcDbLine
 10
80.0
 20
854.00000000000011
 30
0.0
 11
290.0
 21
854.00000000000011
 31
0.0
  0
LINE
  5
98
100
AcDbEntity
  8
0
 62
256
370
158
 48
1.0
  6
Continuous
100
AcDbLine
 10
290.0
 20
854.00000000000011
 30
0.0
 11
290.0
 21
896.00000000000011
 31
0.0
  0
LINE
  5
99
100
AcDbEntity
  8
0
 62
256
370
211
 48
1.0
  6
ByLayer
100
AcDbLine
 10
264.13203779340245
 20
750.09729670563593
 30
0.0
 11
264.13203779340245
 21
724.54052970563589
 31
0.0
  0
LINE
  5
9A
100
AcDbEntity
  8
0
 62
256
370
211
 48
1.0
  6
ByLayer
100
AcDbLine
 10
428.13203826373558
 20
713.040529705636
 30
0.0
 11
428.13203826373558
 21
724.540529705636
 31
0.0
  0
LINE
  5
9B
100
AcDbEntity
  8
0
 62
256
370
211
 48
1.0
  6
ByLayer
100
AcDbLine
 10
428.13203826373558
 20
713.040529705636
 30
0.0
 11
445.63203826373558
 21
713.040529705636
 31
0.0
  0
LINE
  5
9C
100
AcDbEntity
  8
0
 62
256
370
211
 48
1.0
  6
ByLayer
100
AcDbLine
 10
445.63203826373558
 20
713.040529705636
 30
0.0
 11
445.63203826373558
 21
724.540529705636
 31
0.0
  0
LINE
  5
9D
100
AcDbEntity
  8
0
 62
256
370
211
 48
1.0
  6
ByLayer
100
AcDbLine
 10
445.63203826373558
 20
724.540529705636
 30
0.0
 11
428.13203826373558
 21
724.540529705636
 31
0.0
  0
LINE
  5
9E
100
AcDbEntity
  8
0
 62
256
370
-1
 48
1.0
  6
ByLayer
100
AcDbLine
 10
217.6652441919465
 20
266.85657269953697
 30
0.0
 11
217.6652441919465
 21
208.66221036748459
 31
0.0
  0
MTEXT
  5
9F
100
AcDbEntity
  8
0
 62
256
370
18
 48
1.0
  6
Continuous
100
AcDbMText
 10
87.657674093193123
 20
45.825459698271516
 30
0.0
 40
7.5
 41
100.0
 71
1
 72
5
  1
\U+0418\U+0437\U+043c.
  7
textstyle5
 50
0.0
 73
1
 44
1.0
  0
LINE
  5
A0
100
AcDbEntity
  8
0
 62
256
370
-1
 48
1.0
  6
ByLayer
100
AcDbLine
 10
217.6652441919465
 20
266.85657269953697
 30
0.0
 11
207.6652441919465
 21
246.85657269953697
 31
0.0
  0
LINE
  5
A1
100
AcDbEntity
  8
0
 62
256
370
-1
 48
1.0
  6
ByLayer
100
AcDbLine
 10
217.6652441919465
 20
266.85657269953697
 30
0.0
 11
227.6652441919465
 21
246.85657269953697
 31
0.0
  0
MTEXT
  5
A2
100
AcDbEntity
  8
0
 62
256
370
18
 48
1.0
  6
Continuous
100
AcDbMText
 10
124.50652698757449
 20
45.825459698271402
 30
0.0
 40
7.5
 41
100.0
 71
1
 72
5
  1
N\~\U+0434\U+043e\U+043a\U+0443\U+043c.
  7
textstyle3
 50
0.0
 73
1
 44
1.0
  0
MTEXT
  5
A3
100
AcDbEntity
  8
0
 62
256
370
18
 48
1.0
  6
Continuous
100
AcDbMText
 10
196.91859746451473
 20
45.825459698271402
 30
0.0
 40
7.5
 41
100.0
 71
1
 72
5
  1
\U+041f\U+043e\U+0434\U+043f.
  7
textstyle4
 50
0.0
 73
1
 44
1.0
  0
MTEXT
  5
A4
100
AcDbEntity
  8
0
 62
256
370
18
 48
1.0
  6
Continuous
100
AcDbMText
 10
320.63415598568901
 20
65.351970033087525
 30
0.0
 40
15.0
 41
200.0
 71
1
 72
5
  1
\U+0420\U+0430\U+0437\U+043c\U+0435\U+0440 \U+043f\U+043e\U+0441\U+043b\U+0435 \U+043f\U+0435\U+0440\U+0435\U+043d\U+043e\U+0441\U+0430
  7
textstyle1
 50
0.0
 73
1
 44
1.0
  0
MTEXT
  5
A5
100
AcDbEntity
  8
0
 62
256
370
18
 48
1.0
  6
Continuous
100
AcDbMText
 10
244.1362175596679
 20
45.825459698271402
 30
0.0
 40
7.5
 41
100.0
 71
1
 72
5
  1
\U+0414\U+0430\U+0442\U+0430
  7
textstyle2
 50
0.0
 73
1
 44
1.0
  0
LINE
  5
A6
100
AcDbEntity
  8
0
 62
256
370
-1
 48
1.0
  6
ByLayer
100
AcDbLine
 10
292.63203826373558
 20
730.040529705636
 30
0.0
 11
382.63203826373558
 21
730.040529705636
 31
0.0
  0
MTEXT
  5
A7
100
AcDbEntity
  8
0
 62
256
370
18
 48
1.0
  6
Continuous
100
AcDbMText
 10
608.82526376892793
 20
76.558838691520577
 30
0.0
 40
7.5
 41
100.0
 71
1
 72
5
  1
\U+041b\U+0438\U+0441\U+0442
  7
textstyle0
 50
0.0
 73
1
 44
1.0
  0
DIMENSION
  5
A8
100
AcDbEntity
  8
0
 62
256
370
-1
 48
1.0
  6
ByLayer
100
AcDbDimension
 10
144.13203779340245
 20
271.79052945468027
 30
0.0
 11
169.75703779340245
 21
275.54052945468027
 31
0.0
 70
1
 71
8
 72
2
 74
0
 75
0
 41
1.0
 42
0.0
  1

  3
Standard
100
AcDbAlignedDimension
 13
144.13203779340245
 23
281.79052945468027
 33
0.0
 14
195.38203779340245
 24
281.79052945468027
 34
0.0
1001
ACAD
1000
DSTYLE
1002
{
1070
144
1040
20.0
1070
40
1040
2.0
1002
}
  0
DIMENSION
  5
A9
100
AcDbEntity
  8
0
 62
256
370
-1
 48
1.0
  6
ByLayer
100
AcDbDimension
 10
247.13203779340245
 20
271.37424479690742
 30
0.0
 11
221.25703779340245
 21
275.12424479690742
 31
0.0
 70
1
 71
8
 72
2
 74
0
 75
0
 41
1.0
 42
0.0
  1

  3
Standard
100
AcDbAlignedDimension
 13
247.13203779340245
 23
281.79052945468027
 33
0.0
 14
195.38203779340245
 24
281.79052945468027
 34
0.0
1001
ACAD
1000
DSTYLE
1002
{
1070
144
1040
20.0
1070
40
1040
2.0
1002
}
  0
DIMENSION
  5
AA
100
AcDbEntity
  8
0
 62
256
370
-1
 48
1.0
  6
ByLayer
100
AcDbDimension
 10
293.63203779340245
 20
271.37424479690742
 30
0.0
 11
270.38203779340245
 21
275.12424479690742
 31
0.0
 70
1
 71
8
 72
2
 74
0
 75
0
 41
1.0
 42
0.0
  1

  3
Standard
100
AcDbAlignedDimension
 13
293.63203779340245
 23
281.79052945468027
 33
0.0
 14
247.13203779340245
 24
281.79052945468027
 34
0.0
1001
ACAD
1000
DSTYLE
1002
{
1070
144
1040
20.0
1070
40
1040
2.0
1002
}
  0
DIMENSION
  5
AB
100
AcDbEntity
  8
0
 62
256
370
-1
 48
1.0
  6
ByLayer
100
AcDbDimension
 10
388.13203779340245
 20
235.20849275987973
 30
0.0
 11
440.88203779340239
 21
238.95849275987973
 31
0.0
 70
1
 71
8
 72
2
 74
0
 75
0
 41
1.0
 42
0.0
  1

  3
Standard
100
AcDbAlignedDimension
 13
388.13203779340245
 23
246.79052945468027
 33
0.0
 14
493.63203779340233
 24
246.79052945468027
 34
0.0
1001
ACAD
1000
DSTYLE
1002
{
1070
144
1040
20.0
1070
40
1040
2.0
1002
}
  0
DIMENSION
  5
AC
100
AcDbEntity
  8
0
 62
256
370
-1
 48
1.0
  6
ByLayer
100
AcDbDimension
 10
504.13203779340233
 20
246.79052945468027
 30
0.0
 11
500.38203779340233
 21
292.54052945468027
 31
0.0
 70
1
 71
8
 72
2
 74
0
 75
0
 41
1.0
 42
0.0
  1

  3
Standard
100
AcDbAlignedDimension
 13
493.63203779340233
 23
246.79052945468027
 33
0.0
 14
493.63203779340233
 24
338.29052945468027
 34
0.0
1001
ACAD
1000
DSTYLE
1002
{
1070
144
1040
20.0
1070
40
1040
2.0
1002
}
  0
DIMENSION
  5
AD
100
AcDbEntity
  8
0
 62
256
370
-1
 48
1.0
  6
ByLayer
100
AcDbDimension
 10
463.63203779340233
 20
351.79052945468027
 30
0.0
 11
429.98766276269544
 21
347.83829082019463
 31
0.0
 70
129
 71
8
 72
2
 74
0
 75
0
 41
1.0
 42
0.0
  1

  3
Standard
100
AcDbAlignedDimension
 13
463.63203779340233
 23
358.29052945468027
 33
0.0
 14
396.13203779340245
 24
358.29052945468027
 34
0.0
1001
ACAD
1000
DSTYLE
1002
{
1070
279
1070
2
1070
144
1040
20.0
1070
40
1040
2.0
1002
}
  0
DIMENSION
  5
AE
100
AcDbEntity
  8
0
 62
256
370
-1
 48
1.0
  6
ByLayer
100
AcDbDimension
 10
351.05426001562466
 20
351.79052945468027
 30
0.0
 11
373.88900593202993
 21
348.1223346522487
 31
0.0
 70
129
 71
8
 72
2
 74
0
 75
0
 41
1.0
 42
0.0
  1
900
  3
Standard
100
AcDbAlignedDimension
 13
351.13203779340245
 23
358.79052945468027
 33
0.0
 14
396.13203779340245
 24
358.29052945468027
 34
0.0
1001
ACAD
1000
DSTYLE
1002
{
1070
279
1070
2
1070
144
1040
20.0
1070
40
1040
2.0
1002
}
  0
DIMENSION
  5
AF
100
AcDbEntity
  8
0
 62
256
370
-1
 48
1.0
  6
ByLayer
100
AcDbDimension
 10
351.13203779340245
 20
351.79052945468027
 30
0.0
 11
325.60155448284945
 21
347.83829082019463
 31
0.0
 70
129
 71
8
 72
2
 74
0
 75
0
 41
1.0
 42
0.0
  1

  3
Standard
100
AcDbAlignedDimension
 13
351.13203779340245
 23
358.79052945468027
 33
0.0
 14
299.63203779340245
 24
358.79052945468027
 34
0.0
1001
ACAD
1000
DSTYLE
1002
{
1070
279
1070
2
1070
144
1040
20.0
1070
40
1040
2.0
1002
}
  0
DIMENSION
  5
B0
100
AcDbEntity
  8
0
 62
256
370
-1
 48
1.0
  6
ByLayer
100
AcDbDimension
 10
159.13203779340245
 20
441.79052945468027
 30
0.0
 11
185.63203779340245
 21
445.54052945468027
 31
0.0
 70
1
 71
8
 72
2
 74
0
 75
0
 41
1.0
 42
0.0
  1

  3
Standard
100
AcDbAlignedDimension
 13
159.13203779340245
 23
433.54052945468027
 33
0.0
 14
212.13203779340245
 24
433.54052945468027
 34
0.0
1001
ACAD
1000
DSTYLE
1002
{
1070
144
1040
20.0
1070
40
1040
2.0
1002
}
  0
DIMENSION
  5
B1
100
AcDbEntity
  8
0
 62
256
370
-1
 48
1.0
  6
ByLayer
100
AcDbDimension
 10
409.63203779340233
 20
477.82990824551837
 30
0.0
 11
419.88203779340233
 21
481.57990824551837
 31
0.0
 70
1
 71
8
 72
2
 74
0
 75
0
 41
1.0
 42
0.0
  1

  3
Standard
100
AcDbAlignedDimension
 13
409.63203779340233
 23
468.79052945468027
 33
0.0
 14
430.13203779340233
 24
468.79052945468027
 34
0.0
1001
ACAD
1000
DSTYLE
1002
{
1070
144
1040
20.0
1070
40
1040
2.0
1002
}
  0
DIMENSION
  5
B2
100
AcDbEntity
  8
0
 62
256
370
-1
 48
1.0
  6
ByLayer
100
AcDbDimension
 10
439.43853976635864
 20
468.79052945468027
 30
0.0
 11
435.68853976635864
 21
448.54052945468027
 31
0.0
 70
1
 71
8
 72
2
 74
0
 75
0
 41
1.0
 42
0.0
  1

  3
Standard
100
AcDbAlignedDimension
 13
430.13203779340233
 23
468.79052945468027
 33
0.0
 14
430.13203779340233
 24
428.29052945468027
 34
0.0
1001
ACAD
1000
DSTYLE
1002
{
1070
144
1040
20.0
1070
40
1040
2.0
1002
}
  0
DIMENSION
  5
B3
100
AcDbEntity
  8
0
 62
256
370
-1
 48
1.0
  6
ByLayer
100
AcDbDimension
 10
396.13203779340245
 20
371.79052945468027
 30
0.0
 11
485.63203779340239
 21
375.54052945468027
 31
0.0
 70
1
 71
8
 72
2
 74
0
 75
0
 41
1.0
 42
0.0
  1

  3
Standard
100
AcDbAlignedDimension
 13
396.13203779340245
 23
364.79052945468027
 33
0.0
 14
575.13203779340233
 24
364.79052945468027
 34
0.0
1001
ACAD
1000
DSTYLE
1002
{
1070
144
1040
20.0
1070
40
1040
2.0
1002
}
  0
DIMENSION
  5
B4
100
AcDbEntity
  8
0
 62
256
370
-1
 48
1.0
  6
ByLayer
100
AcDbDimension
 10
351.13203779340245
 20
371.79052945468027
 30
0.0
 11
322.38203779340245
 21
375.54052945468027
 31
0.0
 70
1
 71
8
 72
2
 74
0
 75
0
 41
1.0
 42
0.0
  1

  3
Standard
100
AcDbAlignedDimension
 13
351.13203779340245
 23
364.79052945468027
 33
0.0
 14
293.63203779340245
 24
364.79052945468027
 34
0.0
1001
ACAD
1000
DSTYLE
1002
{
1070
144
1040
20.0
1070
40
1040
2.0
1002
}
  0
DIMENSION
  5
B5
100
AcDbEntity
  8
0
 62
256
370
-1
 48
1.0
  6
ByLayer
100
AcDbDimension
 10
285.12061155966796
 20
281.79052945468027
 30
0.0
 11
281.37061155966796
 21
323.29052945468027
 31
0.0
 70
1
 71
8
 72
2
 74
0
 75
0
 41
1.0
 42
0.0
  1

  3
Standard
100
AcDbAlignedDimension
 13
293.63203779340245
 23
281.79052945468027
 33
0.0
 14
293.63203779340245
 24
364.79052945468027
 34
0.0
1001
ACAD
1000
DSTYLE
1002
{
1070
144
1040
20.0
1070
40
1040
2.0
1002
}
  0
DIMENSION
  5
B6
100
AcDbEntity
  8
0
 62
256
370
-1
 48
1.0
  6
ByLayer
100
AcDbDimension
 10
439.37754073608494
 20
428.29052945468027
 30
0.0
 11
435.62754073608494
 21
396.54052945468027
 31
0.0
 70
1
 71
8
 72
2
 74
0
 75
0
 41
1.0
 42
0.0
  1

  3
Standard
100
AcDbAlignedDimension
 13
430.13203779340233
 23
428.29052945468027
 33
0.0
 14
430.13203779340233
 24
364.79052945468027
 34
0.0
1001
ACAD
1000
DSTYLE
1002
{
1070
144
1040
20.0
1070
40
1040
2.0
1002
}
  0
DIMENSION
  5
B7
100
AcDbEntity
  8
0
 62
256
370
-1
 48
1.0
  6
ByLayer
100
AcDbDimension
 10
430.13203779340233
 20
477.75006417325665
 30
0.0
 11
502.63203779340233
 21
481.50006417325665
 31
0.0
 70
1
 71
8
 72
2
 74
0
 75
0
 41
1.0
 42
0.0
  1

  3
Standard
100
AcDbAlignedDimension
 13
430.13203779340233
 23
468.79052945468027
 33
0.0
 14
575.13203779340233
 24
468.79052945468027
 34
0.0
1001
ACAD
1000
DSTYLE
1002
{
1070
144
1040
20.0
1070
40
1040
2.0
1002
}
  0
DIMENSION
  5
B8
100
AcDbEntity
  8
0
 62
256
370
-1
 48
1.0
  6
ByLayer
100
AcDbDimension
 10
409.63203779340233
 20
477.79052945468027
 30
0.0
 11
276.88203779340239
 21
481.54052945468027
 31
0.0
 70
1
 71
8
 72
2
 74
0
 75
0
 41
1.0
 42
0.0
  1

  3
Standard
100
AcDbAlignedDimension
 13
409.63203779340233
 23
468.79052945468027
 33
0.0
 14
144.13203779340245
 24
468.79052945468027
 34
0.0
1001
ACAD
1000
DSTYLE
1002
{
1070
144
1040
20.0
1070
40
1040
2.0
1002
}
  0
CIRCLE
  5
B9
100
AcDbEntity
  8
0
 62
256
370
-1
 48
1.0
  6
ByLayer
100
AcDbCircle
 10
308.38203779340245
 20
289.79052945468027
 30
0.0
 40
4.25
  0
DIMENSION
  5
BA
100
AcDbEntity
  8
0
 62
256
370
-1
 48
1.0
  6
ByLayer
100
AcDbDimension
 10
299.63203779340245
 20
271.7292128504622
 30
0.0
 11
343.88203779340245
 21
275.4792128504622
 31
0.0
 70
1
 71
8
 72
2
 74
0
 75
0
 41
1.0
 42
0.0
  1

  3
Standard
100
AcDbAlignedDimension
 13
299.63203779340245
 23
281.79052945468027
 33
0.0
 14
388.13203779340245
 24
281.79052945468027
 34
0.0
1001
ACAD
1000
DSTYLE
1002
{
1070
144
1040
20.0
1070
40
1040
2.0
1002
}
  0
DIMENSION
  5
BB
100
AcDbEntity
  8
0
 62
256
370
-1
 48
1.0
  6
ByLayer
100
AcDbDimension
 10
399.64149447271984
 20
246.79052945468027
 30
0.0
 11
395.89149447271984
 21
264.29052945468027
 31
0.0
 70
1
 71
8
 72
2
 74
0
 75
0
 41
1.0
 42
0.0
  1

  3
Standard
100
AcDbAlignedDimension
 13
388.13203779340245
 23
246.79052945468027
 33
0.0
 14
388.13203779340245
 24
281.79052945468027
 34
0.0
1001
ACAD
1000
DSTYLE
1002
{
1070
144
1040
20.0
1070
40
1040
2.0
1002
}
  0
DIMENSION
  5
BC
100
AcDbEntity
  8
0
 62
256
370
-1
 48
1.0
  6
ByLayer
100
AcDbDimension
 10
159.13203779340245
 20
441.79052945468027
 30
0.0
 11
153.13203779340245
 21
445.79052945468027
 31
0.0
 70
129
 71
8
 72
2
 74
0
 75
0
 41
1.0
 42
0.0
  1

  3
Standard
100
AcDbAlignedDimension
 13
159.13203779340245
 23
433.54052945468027
 33
0.0
 14
144.13203779340245
 24
433.54052945468027
 34
0.0
1001
ACAD
1000
DSTYLE
1002
{
1070
279
1070
2
1070
144
1040
20.0
1070
40
1040
2.0
1002
}
  0
DIMENSION
  5
BD
100
AcDbEntity
  8
0
 62
256
370
-1
 48
1.0
  6
ByLayer
100
AcDbDimension
 10
151.75093269642548
 20
433.54052945468027
 30
0.0
 11
154.79645633802602
 21
418.10487105445247
 31
0.0
 70
129
 71
8
 72
2
 74
0
 75
0
 41
1.0
 42
0.0
  1

  3
Standard
100
AcDbAlignedDimension
 13
159.13203779340245
 23
433.54052945468027
 33
0.0
 14
159.13203779340245
 24
403.54052945468027
 34
0.0
1001
ACAD
1000
DSTYLE
1002
{
1070
279
1070
2
1070
144
1040
20.0
1070
40
1040
2.0
1002
}
  0
DIMENSION
  5
BE
100
AcDbEntity
  8
0
 62
256
370
-1
 48
1.0
  6
ByLayer
100
AcDbDimension
 10
151.81641623789801
 20
403.54052945468027
 30
0.0
 11
156.13203779340245
 21
342.79052945468027
 31
0.0
 70
129
 71
8
 72
2
 74
0
 75
0
 41
1.0
 42
0.0
  1

  3
Standard
100
AcDbAlignedDimension
 13
159.13203779340245
 23
403.54052945468027
 33
0.0
 14
159.13203779340245
 24
281.79052945468027
 34
0.0
1001
ACAD
1000
DSTYLE
1002
{
1070
279
1070
2
1070
144
1040
20.0
1070
40
1040
2.0
1002
}
  0
DIMENSION
  5
BF
100
AcDbEntity
  8
0
 62
256
370
-1
 48
1.0
  6
ByLayer
100
AcDbDimension
 10
472.86228703874912
 20
338.29052945468027
 30
0.0
 11
469.11228703874906
 21
348.29052945468027
 31
0.0
 70
1
 71
8
 72
2
 74
0
 75
0
 41
1.0
 42
0.0
  1

  3
Standard
100
AcDbAlignedDimension
 13
463.63203779340239
 23
338.29052945468027
 33
0.0
 14
463.63203779340233
 24
358.29052945468027
 34
0.0
1001
ACAD
1000
DSTYLE
1002
{
1070
144
1040
20.0
1070
40
1040
2.0
1002
}
  0
DIMENSION
  5
C0
100
AcDbEntity
  8
0
 62
256
370
-1
 48
1.0
  6
ByLayer
100
AcDbDimension
 10
463.63203779340239
 20
325.21199792578864
 30
0.0
 11
478.63203779340233
 21
328.96199792578864
 31
0.0
 70
1
 71
8
 72
2
 74
0
 75
0
 41
1.0
 42
0.0
  1

  3
Standard
100
AcDbAlignedDimension
 13
463.63203779340239
 23
338.29052945468027
 33
0.0
 14
493.63203779340228
 24
338.29052945468032
 34
0.0
1001
ACAD
1000
DSTYLE
1002
{
1070
144
1040
20.0
1070
40
1040
2.0
1002
}
  0
MTEXT
  5
C1
100
AcDbEntity
  8
0
 62
256
370
-1
 48
1.0
  6
ByLayer
100
AcDbMText
 10
617.01592671029107
 20
54.820586230542034
 30
0.0
 40
10.0
 41
0.0
 71
1
 72
1
  1
\c0;2
  7
textstyle6
 50
0.0
 73
2
 44
1.0
  0
LINE
  5
C2
100
AcDbEntity
  8
0
 62
256
370
90
 48
1.0
  6
ByLayer
100
AcDbLine
 10
264.13203779340245
 20
731.79052945468027
 30
0.0
 11
144.13203779340245
 21
731.79052945468027
 31
0.0
  0
LINE
  5
C3
100
AcDbEntity
  8
0
 62
256
370
-1
 48
1.0
  6
ByLayer
100
AcDbLine
 10
430.13203779340228
 20
468.79052945468027
 30
0.0
 11
575.13203779340233
 21
468.79052945468027
 31
0.0
  0
LINE
  5
C4
100
AcDbEntity
  8
0
 62
256
370
90
 48
1.0
  6
ByLayer
100
AcDbLine
 10
445.63203826373558
 20
718.790529705636
 30
0.0
 11
575.13203779340233
 21
718.79052970563589
 31
0.0
  0
LINE
  5
C5
100
AcDbEntity
  8
0
 62
256
370
-1
 48
1.0
  6
ByLayer
100
AcDbLine
 10
144.13203779340245
 20
750.09729670563593
 30
0.0
 11
264.13203779340245
 21
750.09729670563593
 31
0.0
  0
LINE
  5
C6
100
AcDbEntity
  8
0
 62
256
370
-1
 48
1.0
  6
ByLayer
100
AcDbLine
 10
437.88203779340233
 20
750.09729670563593
 30
0.0
 11
575.13203779340233
 21
750.09729670563593
 31
0.0
  0
LINE
  5
C7
100
AcDbEntity
  8
0
 62
256
370
211
 48
1.0
  6
ByLayer
100
AcDbLine
 10
279.13203826373558
 20
724.54052970563589
 30
0.0
 11
279.13203826373558
 21
730.040529705636
 31
0.0
  0
LINE
  5
C8
100
AcDbEntity
  8
0
 62
256
370
211
 48
1.0
  6
ByLayer
100
AcDbLine
 10
279.13203826373558
 20
730.040529705636
 30
0.0
 11
292.63203826373558
 21
730.040529705636
 31
0.0
  0
LINE
  5
C9
100
AcDbEntity
  8
0
 62
256
370
211
 48
1.0
  6
ByLayer
100
AcDbLine
 10
396.13203826373558
 20
730.040529705636
 30
0.0
 11
396.13203826373558
 21
724.540529705636
 31
0.0
  0
LINE
  5
CA
100
AcDbEntity
  8
0
 62
256
370
211
 48
1.0
  6
ByLayer
100
AcDbLine
 10
437.88203779340233
 20
750.09729670563593
 30
0.0
 11
437.88203779340233
 21
724.54052900651595
 31
0.0
  0
DIMENSION
  5
CB
100
AcDbEntity
  8
0
 62
256
370
-1
 48
1.0
  6
ByLayer
100
AcDbDimension
 10
264.13203779340245
 20
701.79052945468027
 30
0.0
 11
204.13203779340245
 21
705.54052945468027
 31
0.0
 70
1
 71
8
 72
2
 74
0
 75
0
 41
1.0
 42
0.0
  1

  3
Standard
100
AcDbAlignedDimension
 13
264.13203779340245
 23
732.34729670563593
 33
0.0
 14
144.13203779340245
 24
732.34729670563593
 34
0.0
1001
ACAD
1000
DSTYLE
1002
{
1070
144
1040
20.0
1070
40
1040
2.0
1002
}
  0
DIMENSION
  5
CC
100
AcDbEntity
  8
0
 62
256
370
-1
 48
1.0
  6
ByLayer
100
AcDbDimension
 10
279.13203826373558
 20
702.20681411245312
 30
0.0
 11
271.63203802856901
 21
705.95681411245312
 31
0.0
 70
1
 71
8
 72
2
 74
0
 75
0
 41
1.0
 42
0.0
  1

  3
Standard
100
AcDbAlignedDimension
 13
279.13203826373558
 23
724.54052970563589
 33
0.0
 14
264.13203779340245
 24
724.54052970563589
 34
0.0
1001
ACAD
1000
DSTYLE
1002
{
1070
144
1040
20.0
1070
40
1040
2.0
1002
}
  0
DIMENSION
  5
CD
100
AcDbEntity
  8
0
 62
256
370
-1
 48
1.0
  6
ByLayer
100
AcDbDimension
 10
279.13203826373558
 20
701.79052945468027
 30
0.0
 11
285.88203826373558
 21
705.54052945468027
 31
0.0
 70
1
 71
8
 72
2
 74
0
 75
0
 41
1.0
 42
0.0
  1

  3
Standard
100
AcDbAlignedDimension
 13
279.13203826373558
 23
730.040529705636
 33
0.0
 14
292.63203826373558
 24
730.040529705636
 34
0.0
1001
ACAD
1000
DSTYLE
1002
{
1070
144
1040
20.0
1070
40
1040
2.0
1002
}
  0
DIMENSION
  5
CE
100
AcDbEntity
  8
0
 62
256
370
-1
 48
1.0
  6
ByLayer
100
AcDbDimension
 10
292.63203826373558
 20
701.79052945468027
 30
0.0
 11
337.63203826373558
 21
705.54052945468027
 31
0.0
 70
1
 71
8
 72
2
 74
0
 75
0
 41
1.0
 42
0.0
  1

  3
Standard
100
AcDbAlignedDimension
 13
292.63203826373558
 23
730.040529705636
 33
0.0
 14
382.63203826373558
 24
730.040529705636
 34
0.0
1001
ACAD
1000
DSTYLE
1002
{
1070
144
1040
20.0
1070
40
1040
2.0
1002
}
  0
DIMENSION
  5
CF
100
AcDbEntity
  8
0
 62
256
370
-1
 48
1.0
  6
ByLayer
100
AcDbDimension
 10
382.63203826373558
 20
701.79052945468027
 30
0.0
 11
389.38203826373558
 21
705.54052945468027
 31
0.0
 70
1
 71
8
 72
2
 74
0
 75
0
 41
1.0
 42
0.0
  1

  3
Standard
100
AcDbAlignedDimension
 13
382.63203826373558
 23
730.040529705636
 33
0.0
 14
396.13203826373552
 24
730.040529705636
 34
0.0
1001
ACAD
1000
DSTYLE
1002
{
1070
144
1040
20.0
1070
40
1040
2.0
1002
}
  0
DIMENSION
  5
D0
100
AcDbEntity
  8
0
 62
256
370
-1
 48
1.0
  6
ByLayer
100
AcDbDimension
 10
428.13203826373558
 20
701.79052945468038
 30
0.0
 11
412.13203826373558
 21
705.54052945468038
 31
0.0
 70
1
 71
8
 72
2
 74
0
 75
0
 41
1.0
 42
0.0
  1

  3
Standard
100
AcDbAlignedDimension
 13
428.13203826373558
 23
724.54052970563612
 33
0.0
 14
396.13203826373558
 24
724.540529705636
 34
0.0
1001
ACAD
1000
DSTYLE
1002
{
1070
144
1040
20.0
1070
40
1040
2.0
1002
}
  0
DIMENSION
  5
D1
100
AcDbEntity
  8
0
 62
256
370
-1
 48
1.0
  6
ByLayer
100
AcDbDimension
 10
428.13203826373558
 20
701.79052945468027
 30
0.0
 11
436.88203826373558
 21
705.54052945468027
 31
0.0
 70
1
 71
8
 72
2
 74
0
 75
0
 41
1.0
 42
0.0
  1

  3
Standard
100
AcDbAlignedDimension
 13
428.13203826373558
 23
713.040529705636
 33
0.0
 14
445.63203826373558
 24
713.040529705636
 34
0.0
1001
ACAD
1000
DSTYLE
1002
{
1070
144
1040
20.0
1070
40
1040
2.0
1002
}
  0
DIMENSION
  5
D2
100
AcDbEntity
  8
0
 62
256
370
-1
 48
1.0
  6
ByLayer
100
AcDbDimension
 10
575.13203779340233
 20
701.90082486920028
 30
0.0
 11
510.3820380285689
 21
705.65082486920039
 31
0.0
 70
1
 71
8
 72
2
 74
0
 75
0
 41
1.0
 42
0.0
  1

  3
Standard
100
AcDbAlignedDimension
 13
575.13203779340233
 23
718.79052970563589
 33
0.0
 14
445.63203826373552
 24
718.79052970563612
 34
0.0
1001
ACAD
1000
DSTYLE
1002
{
1070
144
1040
20.0
1070
40
1040
2.0
1002
}
  0
DIMENSION
  5
D3
100
AcDbEntity
  8
0
 62
256
370
-1
 48
1.0
  6
ByLayer
100
AcDbDimension
 10
174.13203779340245
 20
433.54052945468027
 30
0.0
 11
170.38203779340245
 21
582.66552945468027
 31
0.0
 70
1
 71
8
 72
2
 74
0
 75
0
 41
1.0
 42
0.0
  1

  3
Standard
100
AcDbAlignedDimension
 13
159.13203779340245
 23
433.54052945468027
 33
0.0
 14
159.13203779340245
 24
731.79052945468027
 34
0.0
1001
ACAD
1000
DSTYLE
1002
{
1070
144
1040
20.0
1070
40
1040
2.0
1002
}
  0
DIMENSION
  5
D4
100
AcDbEntity
  8
0
 62
256
370
-1
 48
1.0
  6
ByLayer
100
AcDbDimension
 10
419.73649788080223
 20
713.040529705636
 30
0.0
 11
417.86149788080223
 21
718.79052970563612
 31
0.0
 70
1
 71
8
 72
2
 74
0
 75
0
 41
1.0
 42
0.0
  1

  3
Standard
100
AcDbAlignedDimension
 13
428.13203826373558
 23
713.040529705636
 33
0.0
 14
428.13203826373558
 24
724.54052970563612
 34
0.0
1001
ACAD
1000
DSTYLE
1002
{
1070
144
1040
2.0
1070
40
1040
1.0
1002
}
  0
DIMENSION
  5
D5
100
AcDbEntity
  8
0
 62
256
370
-1
 48
1.0
  6
ByLayer
100
AcDbDimension
 10
390.76250745316264
 20
724.540529705636
 30
0.0
 11
388.88750745316264
 21
727.290529705636
 31
0.0
 70
1
 71
8
 72
2
 74
0
 75
0
 41
1.0
 42
0.0
  1

  3
Standard
100
AcDbAlignedDimension
 13
396.13203826373552
 23
724.540529705636
 33
0.0
 14
396.13203826373552
 24
730.040529705636
 34
0.0
1001
ACAD
1000
DSTYLE
1002
{
1070
144
1040
2.0
1070
40
1040
1.0
1002
}
  0
ENDSEC
  0
SECTION
  2
OBJECTS
  0
DICTIONARY
  5
C
100
AcDbDictionary
280
0
281
1
  3
ACAD_GROUP
350
D
  3
ACAD_LAYOUT
350
1A
  3
ACAD_MLINESTYLE
350
17
  3
ACAD_PLOTSETTINGS
350
19
  3
ACAD_PLOTSTYLENAME
350
E
  3
AcDbVariableDictionary
350
D6
  3
QCAD_OBJECTS
350
D7
  0
DICTIONARY
  5
D
100
AcDbDictionary
280
0
281
1
  0
ACDBDICTIONARYWDFLT
  5
E
100
AcDbDictionary
281
1
  3
Normal
350
F
100
AcDbDictionaryWithDefault
340
F
  0
ACDBPLACEHOLDER
  5
F
  0
DICTIONARY
  5
17
100
AcDbDictionary
280
0
281
1
  3
Standard
350
18
  0
MLINESTYLE
  5
18
100
AcDbMlineStyle
  2
STANDARD
 70
0
  3

 62
256
 51
90.0
 52
90.0
 71
2
 49
0.5
 62
256
  6
BYLAYER
 49
-0.5
 62
256
  6
BYLAYER
  0
DICTIONARY
  5
19
100
AcDbDictionary
280
0
281
1
  0
DICTIONARY
  5
1A
100
AcDbDictionary
281
1
  3
Layout1
350
1E
  3
Layout2
350
26
  3
Model
350
22
  0
LAYOUT
  5
1E
100
AcDbPlotSettings
  1

  2
none_device
  4

  6

 40
0.0
 41
0.0
 42
0.0
 43
0.0
 44
0.0
 45
0.0
 46
0.0
 47
0.0
 48
0.0
 49
0.0
140
0.0
141
0.0
142
1.0
143
1.0
 70
688
 72
0
 73
0
 74
5
  7

 75
16
147
1.0
148
0.0
149
0.0
100
AcDbLayout
  1
Layout1
 70
1
 71
1
 10
0.0
 20
0.0
 11
420.0
 21
297.0
 12
0.0
 22
0.0
 32
0.0
 14
100000000000000000000.0
 24
100000000000000000000.0
 34
100000000000000000000.0
 15
-100000000000000000000.0
 25
-100000000000000000000.0
 35
-100000000000000000000.0
146
0.0
 13
0.0
 23
0.0
 33
0.0
 16
1.0
 26
0.0
 36
0.0
 17
0.0
 27
1.0
 37
0.0
 76
0
330
1B
  0
LAYOUT
  5
22
100
AcDbPlotSettings
  1

  2
none_device
  4

  6

 40
0.0
 41
0.0
 42
0.0
 43
0.0
 44
0.0
 45
0.0
 46
0.0
 47
0.0
 48
0.0
 49
0.0
140
0.0
141
0.0
142
1.0
143
1.0
 70
1712
 72
0
 73
0
 74
0
  7

 75
0
147
1.0
148
0.0
149
0.0
100
AcDbLayout
  1
Model
 70
1
 71
0
 10
0.0
 20
0.0
 11
12.0
 21
9.0
 12
0.0
 22
0.0
 32
0.0
 14
0.0
 24
0.0
 34
0.0
 15
0.0
 25
0.0
 35
0.0
146
0.0
 13
0.0
 23
0.0
 33
0.0
 16
1.0
 26
0.0
 36
0.0
 17
0.0
 27
1.0
 37
0.0
 76
0
330
1F
  0
LAYOUT
  5
26
100
AcDbPlotSettings
  1

  2
none_device
  4

  6

 40
0.0
 41
0.0
 42
0.0
 43
0.0
 44
0.0
 45
0.0
 46
0.0
 47
0.0
 48
0.0
 49
0.0
140
0.0
141
0.0
142
1.0
143
1.0
 70
688
 72
0
 73
0
 74
5
  7

 75
16
147
1.0
148
0.0
149
0.0
100
AcDbLayout
  1
Layout2
 70
1
 71
2
 10
0.0
 20
0.0
 11
12.0
 21
9.0
 12
0.0
 22
0.0
 32
0.0
 14
0.0
 24
0.0
 34
0.0
 15
0.0
 25
0.0
 35
0.0
146
0.0
 13
0.0
 23
0.0
 33
0.0
 16
1.0
 26
0.0
 36
0.0
 17
0.0
 27
1.0
 37
0.0
 76
0
330
23
  0
DICTIONARY
  5
D6
100
AcDbDictionary
281
1
  3
DIMASSOC
350
D9
  3
HIDETEXT
350
D8
  0
DICTIONARYVAR
  5
D8
100
DictionaryVariables
280
0
  1
2
  0
DICTIONARYVAR
  5
D9
100
DictionaryVariables
280
0
  1
1
  0
DICTIONARY
  5
D7
100
AcDbDictionary
281
1
  3
ColorSettings/BackgroundColor
350
DA
  3
ColorSettings/ColorMode
350
DB
  3
DimensionSettings/AngularFormat
350
DC
  3
DimensionSettings/AngularPrecision
350
DD
  3
DimensionSettings/DecimalPoint
350
DE
  3
DimensionSettings/DimensionFont
350
DF
  3
DimensionSettings/KeepProportions
350
E0
  3
DimensionSettings/LinearFormat
350
E1
  3
DimensionSettings/LinearPrecision
350
E2
  3
Grid/DisplayGrid00
350
E3
  3
Grid/DisplayGrid01
350
E4
  3
Grid/DisplayGrid02
350
E5
  3
Grid/DisplayGrid03
350
E6
  3
Grid/GridSpacingX00
350
E7
  3
Grid/GridSpacingX01
350
E8
  3
Grid/GridSpacingX02
350
E9
  3
Grid/GridSpacingX03
350
EA
  3
Grid/GridSpacingY00
350
EB
  3
Grid/GridSpacingY01
350
EC
  3
Grid/GridSpacingY02
350
ED
  3
Grid/GridSpacingY03
350
EE
  3
Grid/IsometricGrid00
350
EF
  3
Grid/IsometricGrid01
350
F0
  3
Grid/IsometricGrid02
350
F1
  3
Grid/IsometricGrid03
350
F2
  3
Grid/IsometricProjection00
350
F3
  3
Grid/IsometricProjection01
350
F4
  3
Grid/IsometricProjection02
350
F5
  3
Grid/IsometricProjection03
350
F6
  3
Grid/MetaGridSpacingX00
350
F7
  3
Grid/MetaGridSpacingX01
350
F8
  3
Grid/MetaGridSpacingX02
350
F9
  3
Grid/MetaGridSpacingX03
350
FA
  3
Grid/MetaGridSpacingY00
350
FB
  3
Grid/MetaGridSpacingY01
350
FC
  3
Grid/MetaGridSpacingY02
350
FD
  3
Grid/MetaGridSpacingY03
350
FE
  3
MultiPageSettings/Columns
350
FF
  3
MultiPageSettings/GlueMarginsBottom
350
100
  3
MultiPageSettings/GlueMarginsLeft
350
101
  3
MultiPageSettings/GlueMarginsRight
350
102
  3
MultiPageSettings/GlueMarginsTop
350
103
  3
MultiPageSettings/PrintCropMarks
350
104
  3
MultiPageSettings/Rows
350
105
  3
PageSettings/OffsetX
350
106
  3
PageSettings/OffsetY
350
107
  3
PageSettings/PageOrientation
350
108
  3
PageSettings/PaperHeight
350
109
  3
PageSettings/PaperSizeName
350
10A
  3
PageSettings/PaperWidth
350
10B
  3
PageSettings/PointSize
350
10C
  3
PageSettings/Scale
350
10D
  3
PageSettings/ShowPaperBorders
350
10E
  3
QCADVersion
350
10F
  3
UnitSettings/PaperUnit
350
110
  3
ViewportCenter
350
111
  3
ViewportHeight
350
112
  3
ViewportWidth
350
113
  0
XRECORD
  5
DA
330
D7
100
AcDbXrecord
280
1
1000
#ffffff
  0
XRECORD
  5
DB
330
D7
100
AcDbXrecord
280
1
1000
FullColor
  0
XRECORD
  5
DC
330
D7
100
AcDbXrecord
280
1
 90
0
  0
XRECORD
  5
DD
330
D7
100
AcDbXrecord
280
1
 90
0
  0
XRECORD
  5
DE
330
D7
100
AcDbXrecord
280
1
 90
46
  0
XRECORD
  5
DF
330
D7
100
AcDbXrecord
280
1
1000
MS Shell Dlg 2
  0
XRECORD
  5
E0
330
D7
100
AcDbXrecord
280
1
290
0
  0
XRECORD
  5
E1
330
D7
100
AcDbXrecord
280
1
 90
2
  0
XRECORD
  5
E2
330
D7
100
AcDbXrecord
280
1
 90
4
  0
XRECORD
  5
E3
330
D7
100
AcDbXrecord
280
1
290
1
  0
XRECORD
  5
E4
330
D7
100
AcDbXrecord
280
1
290
1
  0
XRECORD
  5
E5
330
D7
100
AcDbXrecord
280
1
290
1
  0
XRECORD
  5
E6
330
D7
100
AcDbXrecord
280
1
290
1
  0
XRECORD
  5
E7
330
D7
100
AcDbXrecord
280
1
1000
auto
  0
XRECORD
  5
E8
330
D7
100
AcDbXrecord
280
1
1000
auto
  0
XRECORD
  5
E9
330
D7
100
AcDbXrecord
280
1
1000
auto
  0
XRECORD
  5
EA
330
D7
100
AcDbXrecord
280
1
1000
auto
  0
XRECORD
  5
EB
330
D7
100
AcDbXrecord
280
1
1000
auto
  0
XRECORD
  5
EC
330
D7
100
AcDbXrecord
280
1
1000
auto
  0
XRECORD
  5
ED
330
D7
100
AcDbXrecord
280
1
1000
auto
  0
XRECORD
  5
EE
330
D7
100
AcDbXrecord
280
1
1000
auto
  0
XRECORD
  5
EF
330
D7
100
AcDbXrecord
280
1
290
0
  0
XRECORD
  5
F0
330
D7
100
AcDbXrecord
280
1
290
0
  0
XRECORD
  5
F1
330
D7
100
AcDbXrecord
280
1
290
0
  0
XRECORD
  5
F2
330
D7
100
AcDbXrecord
280
1
290
0
  0
XRECORD
  5
F3
330
D7
100
AcDbXrecord
280
1
 90
65537
  0
XRECORD
  5
F4
330
D7
100
AcDbXrecord
280
1
 90
65537
  0
XRECORD
  5
F5
330
D7
100
AcDbXrecord
280
1
 90
65537
  0
XRECORD
  5
F6
330
D7
100
AcDbXrecord
280
1
 90
65537
  0
XRECORD
  5
F7
330
D7
100
AcDbXrecord
280
1
1000
auto
  0
XRECORD
  5
F8
330
D7
100
AcDbXrecord
280
1
1000
auto
  0
XRECORD
  5
F9
330
D7
100
AcDbXrecord
280
1
1000
auto
  0
XRECORD
  5
FA
330
D7
100
AcDbXrecord
280
1
1000
auto
  0
XRECORD
  5
FB
330
D7
100
AcDbXrecord
280
1
1000
auto
  0
XRECORD
  5
FC
330
D7
100
AcDbXrecord
280
1
1000
auto
  0
XRECORD
  5
FD
330
D7
100
AcDbXrecord
280
1
1000
auto
  0
XRECORD
  5
FE
330
D7
100
AcDbXrecord
280
1
1000
auto
  0
XRECORD
  5
FF
330
D7
100
AcDbXrecord
280
1
 90
1
  0
XRECORD
  5
100
330
D7
100
AcDbXrecord
280
1
 40
10.0
  0
XRECORD
  5
101
330
D7
100
AcDbXrecord
280
1
 40
10.0
  0
XRECORD
  5
102
330
D7
100
AcDbXrecord
280
1
 40
10.0
  0
XRECORD
  5
103
330
D7
100
AcDbXrecord
280
1
 40
10.0
  0
XRECORD
  5
104
330
D7
100
AcDbXrecord
280
1
290
0
  0
XRECORD
  5
105
330
D7
100
AcDbXrecord
280
1
 90
1
  0
XRECORD
  5
106
330
D7
100
AcDbXrecord
280
1
 40
0.0
  0
XRECORD
  5
107
330
D7
100
AcDbXrecord
280
1
 40
0.0
  0
XRECORD
  5
108
330
D7
100
AcDbXrecord
280
1
1000
Portrait
  0
XRECORD
  5
109
330
D7
100
AcDbXrecord
280
1
1000
465.5
  0
XRECORD
  5
10A
330
D7
100
AcDbXrecord
280
1
1000
Custom
  0
XRECORD
  5
10B
330
D7
100
AcDbXrecord
280
1
1000
335
  0
XRECORD
  5
10C
330
D7
100
AcDbXrecord
280
1
1000
1
  0
XRECORD
  5
10D
330
D7
100
AcDbXrecord
280
1
1000
1:2
  0
XRECORD
  5
10E
330
D7
100
AcDbXrecord
280
1
290
0
  0
XRECORD
  5
10F
330
D7
100
AcDbXrecord
280
1
1000
3.23.0
  0
XRECORD
  5
110
330
D7
100
AcDbXrecord
280
1
 90
4
  0
XRECORD
  5
112
330
D7
100
AcDbXrecord
280
1
 40
1151.5928047690018
  0
XRECORD
  5
113
330
D7
100
AcDbXrecord
280
1
 40
2402.2130074515653
  0
ENDSEC
  0
EOF
