999
dxflib 3.17.0.0
  0
SECTION
  2
HEADER
  9
$ACADVER
  1
AC1015
  9
$HANDSEED
  5
FFFF
  9
$ANGBASE
 50
0.0
  9
$ANGDIR
 70
0
  9
$ATTMODE
 70
1
  9
$AUNITS
 70
0
  9
$AUPREC
 70
0
  9
$CECOLOR
 62
256
  9
$CELTSCALE
 40
1.0
  9
$CHAMFERA
 40
0.0
  9
$CHAMFERB
 40
0.0
  9
$CHAMFERC
 40
0.0
  9
$CHAMFERD
 40
0.0
  9
$CMLJUST
 70
0
  9
$CMLSCALE
 40
1.0
  9
$DIMADEC
 70
0
  9
$DIMALT
 70
0
  9
$DIMALTD
 70
2
  9
$DIMALTF
 40
25.399999999999999
  9
$DIMALTRND
 40
0.0
  9
$DIMALTTD
 70
2
  9
$DIMALTTZ
 70
0
  9
$DIMALTU
 70
2
  9
$DIMALTZ
 70
0
  9
$DIMAPOST
  1

  9
$DIMASZ
 40
2.5
  9
$DIMATFIT
 70
3
  9
$DIMAUNIT
 70
0
  9
$DIMAZIN
 70
2
  9
$DIMBLK
  1

  9
$DIMBLK1
  1

  9
$DIMBLK2
  1

  9
$DIMCEN
 40
0.09
  9
$DIMCLRD
 70
0
  9
$DIMCLRE
 70
0
  9
$DIMCLRT
 70
0
  9
$DIMDEC
 70
4
  9
$DIMDLE
 40
0.0
  9
$DIMDLI
 40
5.0
  9
$DIMDSEP
 70
46
  9
$DIMEXE
 40
1.25
  9
$DIMEXO
 40
0.625
  9
$DIMFRAC
 70
0
  9
$DIMGAP
 40
0.625
  9
$DIMJUST
 70
0
  9
$DIMLDRBLK
  1

  9
$DIMLFAC
 40
1.0
  9
$DIMLIM
 70
0
  9
$DIMLUNIT
 70
2
  9
$DIMLWD
 70
-2
  9
$DIMLWE
 70
-2
  9
$DIMPOST
  1

  9
$DIMRND
 40
0.0
  9
$DIMSAH
 70
0
  9
$DIMSCALE
 40
1.0
  9
$DIMSD1
 70
0
  9
$DIMSD2
 70
0
  9
$DIMSE1
 70
0
  9
$DIMSE2
 70
0
  9
$DIMSOXD
 70
0
  9
$DIMTAD
 70
0
  9
$DIMTDEC
 70
4
  9
$DIMTFAC
 40
1.0
  9
$DIMTIH
 70
1
  9
$DIMTIX
 70
0
  9
$DIMTM
 40
0.0
  9
$DIMTOFL
 70
0
  9
$DIMTOH
 70
1
  9
$DIMTOL
 70
0
  9
$DIMTOLJ
 70
1
  9
$DIMTP
 40
0.0
  9
$DIMTSZ
 40
0.0
  9
$DIMTVP
 40
0.0
  9
$DIMTXSTY
  7
Standard
  9
$DIMTXT
 40
2.5
  9
$DIMTZIN
 70
0
  9
$DIMUPT
 70
0
  9
$DIMZIN
 70
8
  9
$DISPSILH
 70
0
  9
$DWGCODEPAGE
  3
ANSI_1252
  9
$ELEVATION
 40
0.0
  9
$EXTMAX
 10
8620.0
 20
8855.0
 30
0.0
  9
$EXTMIN
 10
0.0
 20
0.0
 30
0.0
  9
$FILLETRAD
 40
0.5
  9
$FILLMODE
 70
1
  9
$INSBASE
 10
0.0
 20
0.0
 30
0.0
  9
$INSUNITS
 70
4
  9
$LIMCHECK
 70
0
  9
$LIMMAX
 10
12.0
 20
9.0
  9
$LIMMIN
 10
0.0
 20
0.0
  9
$LTSCALE
 40
1.0
  9
$LUNITS
 70
2
  9
$LUPREC
 70
4
  9
$MAXACTVP
 70
64
  9
$MEASUREMENT
 70
1
  9
$MIRRTEXT
 70
1
  9
$ORTHOMODE
 70
0
  9
$PDMODE
 70
0
  9
$PDSIZE
 40
0.0
  9
$PELEVATION
 40
0.0
  9
$PEXTMAX
 10
0.0
 20
0.0
 30
0.0
  9
$PEXTMIN
 10
0.0
 20
0.0
 30
0.0
  9
$PINSBASE
 10
0.0
 20
0.0
 30
0.0
  9
$PLIMCHECK
 70
0
  9
$PLIMMAX
 10
277.0
 20
202.5
  9
$PLIMMIN
 10
-20.0
 20
-7.5
  9
$PLINEGEN
 70
0
  9
$PLINEWID
 40
0.0
  9
$PROXYGRAPHICS
 70
1
  9
$PSLTSCALE
 70
1
  9
$PUCSNAME
  2

  9
$PUCSORG
 10
0.0
 20
0.0
 30
0.0
  9
$PUCSXDIR
 10
1.0
 20
0.0
 30
0.0
  9
$PUCSYDIR
 10
0.0
 20
1.0
 30
0.0
  9
$QTEXTMODE
 70
0
  9
$REGENMODE
 70
1
  9
$SHADEDGE
 70
3
  9
$SHADEDIF
 70
70
  9
$SKETCHINC
 40
0.1
  9
$SKPOLY
 70
0
  9
$SPLFRAME
 70
0
  9
$SPLINESEGS
 70
8
  9
$SPLINETYPE
 70
6
  9
$SURFTAB1
 70
6
  9
$SURFTAB2
 70
6
  9
$SURFTYPE
 70
6
  9
$SURFU
 70
6
  9
$SURFV
 70
6
  9
$TEXTSIZE
 40
0.2
  9
$TEXTSTYLE
  7
Standard
  9
$THICKNESS
 40
0.0
  9
$TILEMODE
 70
1
  9
$TRACEWID
 40
0.05
  9
$TREEDEPTH
 70
3020
  9
$UCSNAME
  2

  9
$UCSORG
 10
0.0
 20
0.0
 30
0.0
  9
$UCSXDIR
 10
1.0
 20
0.0
 30
0.0
  9
$UCSYDIR
 10
0.0
 20
1.0
 30
0.0
  9
$UNITMODE
 70
0
  9
$USERI1
 70
0
  9
$USERI2
 70
0
  9
$USERI3
 70
0
  9
$USERI4
 70
0
  9
$USERI5
 70
0
  9
$USERR1
 40
0.0
  9
$USERR2
 40
0.0
  9
$USERR3
 40
0.0
  9
$USERR4
 40
0.0
  9
$USERR5
 40
0.0
  9
$USRTIMER
 70
1
  9
$VISRETAIN
 70
1
  0
ENDSEC
  0
SECTION
  2
TABLES
  0
TABLE
  2
VPORT
  5
8
100
AcDbSymbolTable
 70
1
  0
VPORT
  5
30
100
AcDbSymbolTableRecord
100
AcDbViewportTableRecord
  2
*Active
 70
0
 10
0.0
 20
0.0
 11
1.0
 21
1.0
 12
286.30555555555549
 22
148.5
 13
0.0
 23
0.0
 14
10.0
 24
10.0
 15
10.0
 25
10.0
 16
0.0
 26
0.0
 36
1.0
 17
0.0
 27
0.0
 37
0.0
 40
297.0
 41
1.92798353909465
 42
50.0
 43
0.0
 44
0.0
 50
0.0
 51
0.0
 71
0
 72
100
 73
1
 74
3
 75
1
 76
1
 77
0
 78
0
281
0
 65
1
110
0.0
120
0.0
130
0.0
111
1.0
121
0.0
131
0.0
112
0.0
122
1.0
132
0.0
 79
0
146
0.0
  0
ENDTAB
  0
TABLE
  2
LTYPE
  5
5
100
AcDbSymbolTable
 70
50
  0
LTYPE
  5
16
100
AcDbSymbolTableRecord
100
AcDbLinetypeTableRecord
  2
Continuous
 70
0
  3
Solid line
 72
65
 73
0
 40
0.0
  0
LTYPE
  5
31
100
AcDbSymbolTableRecord
100
AcDbLinetypeTableRecord
  2
PHANTOM2
 70
0
  3
Phantom (.5x) ___ _ _ ___ _ _ ___ _ _ ___ _ _
 72
65
 73
6
 40
31.750000000000004
 49
15.875
 74
0
 49
-3.1749999999999998
 74
0
 49
3.1749999999999998
 74
0
 49
-3.1749999999999998
 74
0
 49
3.1749999999999998
 74
0
 49
-3.1749999999999998
 74
0
  0
LTYPE
  5
32
100
AcDbSymbolTableRecord
100
AcDbLinetypeTableRecord
  2
DASHDOT2
 70
0
  3
Dash dot (.5x) _._._._._._._._._._._._._._._.
 72
65
 73
4
 40
12.699999999999999
 49
6.3499999999999996
 74
0
 49
-3.125
 74
0
 49
0.1
 74
0
 49
-3.125
 74
0
  0
LTYPE
  5
33
100
AcDbSymbolTableRecord
100
AcDbLinetypeTableRecord
  2
ACAD_ISO03W100
 70
0
  3
ISO dash space __    __    __    __    __    __
 72
65
 73
2
 40
30.0
 49
12.0
 74
0
 49
-18.0
 74
0
  0
LTYPE
  5
34
100
AcDbSymbolTableRecord
100
AcDbLinetypeTableRecord
  2
TRACKS
 70
0
  3
Tracks -|-|-|-|-|-|-|-|-|-|-|-|-|-|-|-|-|-|-|-|-|-|-|-|-
 72
65
 73
1
 40
3.8100000000000001
 49
3.8100000000000001
 74
0
  0
LTYPE
  5
35
100
AcDbSymbolTableRecord
100
AcDbLinetypeTableRecord
  2
ACAD_ISO07W100
 70
0
  3
ISO dot . . . . . . . . . . . . . . . . . . . . 
 72
65
 73
2
 40
3.0
 49
0.1
 74
0
 49
-2.8999999999999999
 74
0
  0
LTYPE
  5
36
100
AcDbSymbolTableRecord
100
AcDbLinetypeTableRecord
  2
DOTX2
 70
0
  3
Dot (2x) .  .  .  .  .  .  .  .  .  .  .  .  .  .
 72
65
 73
2
 40
12.699999999999999
 49
0.1
 74
0
 49
-12.6
 74
0
  0
LTYPE
  5
37
100
AcDbSymbolTableRecord
100
AcDbLinetypeTableRecord
  2
PHANTOM
 70
0
  3
Phantom ______  __  __  ______  __  __  ______ 
 72
65
 73
6
 40
63.500000000000007
 49
31.75
 74
0
 49
-6.3499999999999996
 74
0
 49
6.3499999999999996
 74
0
 49
-6.3499999999999996
 74
0
 49
6.3499999999999996
 74
0
 49
-6.3499999999999996
 74
0
  0
LTYPE
  5
38
100
AcDbSymbolTableRecord
100
AcDbLinetypeTableRecord
  2
CENTERX2
 70
0
  3
Center (2x) ________  __  ________  __  _____
 72
65
 73
4
 40
101.60000000000001
 49
63.5
 74
0
 49
-12.699999999999999
 74
0
 49
12.699999999999999
 74
0
 49
-12.699999999999999
 74
0
  0
LTYPE
  5
39
100
AcDbSymbolTableRecord
100
AcDbLinetypeTableRecord
  2
ZIGZAG
 70
0
  3
Zig zag /\/\/\/\/\/\/\/\/\/\/\/\/\/\/\/\/\/\/\/\/\/\/\/
 72
65
 73
2
 40
5.0825399999999998
 49
0.00254
 74
0
 49
-5.0800000000000001
 74
0
  0
LTYPE
  5
3A
100
AcDbSymbolTableRecord
100
AcDbLinetypeTableRecord
  2
CENTER
 70
0
  3
Center ____ _ ____ _ ____ _ ____ _ ____ _ ____
 72
65
 73
4
 40
50.800000000000004
 49
31.75
 74
0
 49
-6.3499999999999996
 74
0
 49
6.3499999999999996
 74
0
 49
-6.3499999999999996
 74
0
  0
LTYPE
  5
3B
100
AcDbSymbolTableRecord
100
AcDbLinetypeTableRecord
  2
FENCELINE1
 70
0
  3
Fenceline circle ----0-----0----0-----0----0-----0--
 72
65
 73
2
 40
8.8900000000000006
 49
6.3499999999999996
 74
0
 49
-2.54
 74
0
  0
LTYPE
  5
3C
100
AcDbSymbolTableRecord
100
AcDbLinetypeTableRecord
  2
ACAD_ISO14W100
 70
0
  3
ISO dash triple-dot __ . . . __ . . . __ . . . _
 72
65
 73
8
 40
24.000000000000004
 49
12.0
 74
0
 49
-2.9500000000000002
 74
0
 49
0.1
 74
0
 49
-2.9000000000000004
 74
0
 49
0.1
 74
0
 49
-2.9000000000000004
 74
0
 49
0.1
 74
0
 49
-2.9500000000000002
 74
0
  0
LTYPE
  5
3D
100
AcDbSymbolTableRecord
100
AcDbLinetypeTableRecord
  2
DIVIDE2
 70
0
  3
Divide (.5x) __..__..__..__..__..__..__..__.._
 72
65
 73
6
 40
15.874999999999998
 49
6.3499999999999996
 74
0
 49
-3.125
 74
0
 49
0.1
 74
0
 49
-3.0750000000000002
 74
0
 49
0.1
 74
0
 49
-3.125
 74
0
  0
LTYPE
  5
3E
100
AcDbSymbolTableRecord
100
AcDbLinetypeTableRecord
  2
DOT2
 70
0
  3
Dot (.5x) ........................................
 72
65
 73
2
 40
3.1749999999999998
 49
0.1
 74
0
 49
-3.0749999999999997
 74
0
  0
LTYPE
  5
3F
100
AcDbSymbolTableRecord
100
AcDbLinetypeTableRecord
  2
BORDER
 70
0
  3
Border __ __ . __ __ . __ __ . __ __ . __ __ .
 72
65
 73
6
 40
44.449999999999996
 49
12.699999999999999
 74
0
 49
-6.3499999999999996
 74
0
 49
12.699999999999999
 74
0
 49
-6.2999999999999998
 74
0
 49
0.1
 74
0
 49
-6.2999999999999998
 74
0
  0
LTYPE
  5
40
100
AcDbSymbolTableRecord
100
AcDbLinetypeTableRecord
  2
BATTING
 70
0
  3
Batting SSSSSSSSSSSSSSSSSSSSSSSSSSSSSSSSSSSSSSSSSSSSSSS
 72
65
 73
2
 40
2.5425400000000002
 49
0.00254
 74
0
 49
-2.54
 74
0
  0
LTYPE
  5
41
100
AcDbSymbolTableRecord
100
AcDbLinetypeTableRecord
  2
GAS_LINE
 70
0
  3
Gas line ----GAS----GAS----GAS----GAS----GAS----GAS--
 72
65
 73
2
 40
17.780000000000001
 49
12.699999999999999
 74
0
 49
-5.0800000000000001
 74
0
  0
LTYPE
  5
42
100
AcDbSymbolTableRecord
100
AcDbLinetypeTableRecord
  2
ACAD_ISO13W100
 70
0
  3
ISO double-dash double-dot __ __ . . __ __ . . _
 72
65
 73
8
 40
36.000000000000007
 49
12.0
 74
0
 49
-3.0
 74
0
 49
12.0
 74
0
 49
-2.9500000000000002
 74
0
 49
0.1
 74
0
 49
-2.9000000000000004
 74
0
 49
0.1
 74
0
 49
-2.9500000000000002
 74
0
  0
LTYPE
  5
43
100
AcDbSymbolTableRecord
100
AcDbLinetypeTableRecord
  2
ACAD_ISO02W100
 70
0
  3
ISO dash __ __ __ __ __ __ __ __ __ __ __ __ __
 72
65
 73
2
 40
15.0
 49
12.0
 74
0
 49
-3.0
 74
0
  0
LTYPE
  5
44
100
AcDbSymbolTableRecord
100
AcDbLinetypeTableRecord
  2
DRAINAGE2
 70
0
  3
Drainage reversed----<----<----<----
 72
65
 73
1
 40
5.0800000000000001
 49
5.0800000000000001
 74
0
  0
LTYPE
  5
45
100
AcDbSymbolTableRecord
100
AcDbLinetypeTableRecord
  2
DIVIDEX2
 70
0
  3
Divide (2x) ________  .  .  ________  .  .  _
 72
65
 73
6
 40
63.5
 49
25.399999999999999
 74
0
 49
-12.649999999999999
 74
0
 49
0.1
 74
0
 49
-12.599999999999998
 74
0
 49
0.1
 74
0
 49
-12.649999999999999
 74
0
  0
LTYPE
  5
46
100
AcDbSymbolTableRecord
100
AcDbLinetypeTableRecord
  2
BORDERX2
 70
0
  3
Border (2x) ____  ____  .  ____  ____  .  ___
 72
65
 73
6
 40
88.899999999999977
 49
25.399999999999999
 74
0
 49
-12.699999999999999
 74
0
 49
25.399999999999999
 74
0
 49
-12.649999999999999
 74
0
 49
0.1
 74
0
 49
-12.649999999999999
 74
0
  0
LTYPE
  5
47
100
AcDbSymbolTableRecord
100
AcDbLinetypeTableRecord
  2
ACAD_ISO05W100
 70
0
  3
ISO long-dash double-dot ____ .. ____ .. ____ . 
 72
65
 73
6
 40
33.000000000000007
 49
24.0
 74
0
 49
-2.9500000000000002
 74
0
 49
0.1
 74
0
 49
-2.9000000000000004
 74
0
 49
0.1
 74
0
 49
-2.9500000000000002
 74
0
  0
LTYPE
  5
48
100
AcDbSymbolTableRecord
100
AcDbLinetypeTableRecord
  2
DIVIDE
 70
0
  3
Divide ____ . . ____ . . ____ . . ____ . . ____
 72
65
 73
6
 40
31.750000000000004
 49
12.699999999999999
 74
0
 49
-6.2999999999999998
 74
0
 49
0.1
 74
0
 49
-6.25
 74
0
 49
0.1
 74
0
 49
-6.2999999999999998
 74
0
  0
LTYPE
  5
49
100
AcDbSymbolTableRecord
100
AcDbLinetypeTableRecord
  2
CENTER2
 70
0
  3
Center (.5x) ___ _ ___ _ ___ _ ___ _ ___ _ ___
 72
65
 73
4
 40
28.575000000000003
 49
19.050000000000001
 74
0
 49
-3.1749999999999998
 74
0
 49
3.1749999999999998
 74
0
 49
-3.1749999999999998
 74
0
  0
LTYPE
  5
4A
100
AcDbSymbolTableRecord
100
AcDbLinetypeTableRecord
  2
DOT
 70
0
  3
Dot . . . . . . . . . . . . . . . . . . . . . . . .
 72
65
 73
2
 40
6.3499999999999996
 49
0.1
 74
0
 49
-6.25
 74
0
  0
LTYPE
  5
4B
100
AcDbSymbolTableRecord
100
AcDbLinetypeTableRecord
  2
ACAD_ISO12W100
 70
0
  3
ISO dash double-dot __ . . __ . . __ . . __ . . 
 72
65
 73
6
 40
21.0
 49
12.0
 74
0
 49
-2.9500000000000002
 74
0
 49
0.1
 74
0
 49
-2.9000000000000004
 74
0
 49
0.1
 74
0
 49
-2.9500000000000002
 74
0
  0
LTYPE
  5
4C
100
AcDbSymbolTableRecord
100
AcDbLinetypeTableRecord
  2
ACAD_ISO11W100
 70
0
  3
ISO double-dash dot __ __ . __ __ . __ __ . __ _
 72
65
 73
6
 40
33.0
 49
12.0
 74
0
 49
-3.0
 74
0
 49
12.0
 74
0
 49
-2.9500000000000002
 74
0
 49
0.1
 74
0
 49
-2.9500000000000002
 74
0
  0
LTYPE
  5
4D
100
AcDbSymbolTableRecord
100
AcDbLinetypeTableRecord
  2
HIDDENX2
 70
0
  3
Hidden (2x) ____ ____ ____ ____ ____ ____ ____ 
 72
65
 73
2
 40
19.049999999999997
 49
12.699999999999999
 74
0
 49
-6.3499999999999996
 74
0
  0
LTYPE
  5
4E
100
AcDbSymbolTableRecord
100
AcDbLinetypeTableRecord
  2
ACAD_ISO15W100
 70
0
  3
ISO double-dash triple-dot __ __ . . . __ __ . .
 72
65
 73
10
 40
39.000000000000007
 49
12.0
 74
0
 49
-3.0
 74
0
 49
12.0
 74
0
 49
-2.9500000000000002
 74
0
 49
0.1
 74
0
 49
-2.9000000000000004
 74
0
 49
0.1
 74
0
 49
-2.9000000000000004
 74
0
 49
0.1
 74
0
 49
-2.9500000000000002
 74
0
  0
LTYPE
  5
4F
100
AcDbSymbolTableRecord
100
AcDbLinetypeTableRecord
  2
DASHED
 70
0
  3
Dashed __ __ __ __ __ __ __ __ __ __ __ __ __ _
 72
65
 73
2
 40
19.049999999999997
 49
12.699999999999999
 74
0
 49
-6.3499999999999996
 74
0
  0
LTYPE
  5
50
100
AcDbSymbolTableRecord
100
AcDbLinetypeTableRecord
  2
ACAD_ISO10W100
 70
0
  3
ISO dash dot __ . __ . __ . __ . __ . __ . __ . 
 72
65
 73
4
 40
18.0
 49
12.0
 74
0
 49
-2.9500000000000002
 74
0
 49
0.1
 74
0
 49
-2.9500000000000002
 74
0
  0
LTYPE
  5
51
100
AcDbSymbolTableRecord
100
AcDbLinetypeTableRecord
  2
HIDDEN
 70
0
  3
Hidden __ __ __ __ __ __ __ __ __ __ __ __ __ __
 72
65
 73
2
 40
9.5249999999999986
 49
6.3499999999999996
 74
0
 49
-3.1749999999999998
 74
0
  0
LTYPE
  5
52
100
AcDbSymbolTableRecord
100
AcDbLinetypeTableRecord
  2
PHANTOMX2
 70
0
  3
Phantom (2x) ____________    ____    ____   _
 72
65
 73
6
 40
127.00000000000001
 49
63.5
 74
0
 49
-12.699999999999999
 74
0
 49
12.699999999999999
 74
0
 49
-12.699999999999999
 74
0
 49
12.699999999999999
 74
0
 49
-12.699999999999999
 74
0
  0
LTYPE
  5
53
100
AcDbSymbolTableRecord
100
AcDbLinetypeTableRecord
  2
ACAD_ISO08W100
 70
0
  3
ISO long-dash short-dash ____ __ ____ __ ____ _
 72
65
 73
4
 40
36.0
 49
24.0
 74
0
 49
-3.0
 74
0
 49
6.0
 74
0
 49
-3.0
 74
0
  0
LTYPE
  5
54
100
AcDbSymbolTableRecord
100
AcDbLinetypeTableRecord
  2
HOT_WATER_SUPPLY
 70
0
  3
Hot water supply ---- HW ---- HW ---- HW ----
 72
65
 73
2
 40
17.780000000000001
 49
12.699999999999999
 74
0
 49
-5.0800000000000001
 74
0
  0
LTYPE
  5
55
100
AcDbSymbolTableRecord
100
AcDbLinetypeTableRecord
  2
ACAD_ISO04W100
 70
0
  3
ISO long-dash dot ____ . ____ . ____ . ____ . _
 72
65
 73
4
 40
30.0
 49
24.0
 74
0
 49
-2.9500000000000002
 74
0
 49
0.1
 74
0
 49
-2.9500000000000002
 74
0
  0
LTYPE
  5
56
100
AcDbSymbolTableRecord
100
AcDbLinetypeTableRecord
  2
DASHDOTX2
 70
0
  3
Dash dot (2x) ____  .  ____  .  ____  .  ___
 72
65
 73
4
 40
50.799999999999997
 49
25.399999999999999
 74
0
 49
-12.649999999999999
 74
0
 49
0.1
 74
0
 49
-12.649999999999999
 74
0
  0
LTYPE
  5
57
100
AcDbSymbolTableRecord
100
AcDbLinetypeTableRecord
  2
DASHDOT
 70
0
  3
Dash dot __ . __ . __ . __ . __ . __ . __ . __
 72
65
 73
4
 40
25.400000000000002
 49
12.699999999999999
 74
0
 49
-6.2999999999999998
 74
0
 49
0.1
 74
0
 49
-6.2999999999999998
 74
0
  0
LTYPE
  5
58
100
AcDbSymbolTableRecord
100
AcDbLinetypeTableRecord
  2
ACAD_ISO09W100
 70
0
  3
ISO long-dash double-short-dash ____ __ __ ____
 72
65
 73
6
 40
45.0
 49
24.0
 74
0
 49
-3.0
 74
0
 49
6.0
 74
0
 49
-3.0
 74
0
 49
6.0
 74
0
 49
-3.0
 74
0
  0
LTYPE
  5
59
100
AcDbSymbolTableRecord
100
AcDbLinetypeTableRecord
  2
BORDER2
 70
0
  3
Border (.5x) __.__.__.__.__.__.__.__.__.__.__.
 72
65
 73
6
 40
22.225000000000001
 49
6.3499999999999996
 74
0
 49
-3.1749999999999998
 74
0
 49
6.3499999999999996
 74
0
 49
-3.125
 74
0
 49
0.1
 74
0
 49
-3.125
 74
0
  0
LTYPE
  5
15
100
AcDbSymbolTableRecord
100
AcDbLinetypeTableRecord
  2
ByLayer
 70
0
  3

 72
65
 73
0
 40
0.0
  0
LTYPE
  5
14
100
AcDbSymbolTableRecord
100
AcDbLinetypeTableRecord
  2
ByBlock
 70
0
  3

 72
65
 73
0
 40
0.0
  0
LTYPE
  5
5A
100
AcDbSymbolTableRecord
100
AcDbLinetypeTableRecord
  2
DASHED2
 70
0
  3
Dashed (.5x) _ _ _ _ _ _ _ _ _ _ _ _ _ _ _ _ _ 
 72
65
 73
2
 40
9.5249999999999986
 49
6.3499999999999996
 74
0
 49
-3.1749999999999998
 74
0
  0
LTYPE
  5
5B
100
AcDbSymbolTableRecord
100
AcDbLinetypeTableRecord
  2
HIDDEN2
 70
0
  3
Hidden (.5x) _ _ _ _ _ _ _ _ _ _ _ _ _ _ _ _ _ 
 72
65
 73
2
 40
4.7624999999999993
 49
3.1749999999999998
 74
0
 49
-1.5874999999999999
 74
0
  0
LTYPE
  5
5C
100
AcDbSymbolTableRecord
100
AcDbLinetypeTableRecord
  2
DRAINAGE
 70
0
  3
Drainage ---->---->---->----
 72
65
 73
1
 40
5.0800000000000001
 49
5.0800000000000001
 74
0
  0
LTYPE
  5
5D
100
AcDbSymbolTableRecord
100
AcDbLinetypeTableRecord
  2
DASHEDX2
 70
0
  3
Dashed (2x) ____  ____  ____  ____  ____  ___
 72
65
 73
2
 40
38.099999999999994
 49
25.399999999999999
 74
0
 49
-12.699999999999999
 74
0
  0
LTYPE
  5
5E
100
AcDbSymbolTableRecord
100
AcDbLinetypeTableRecord
  2
FENCELINE2
 70
0
  3
Fenceline square ----[]-----[]----[]-----[]----[]---
 72
65
 73
2
 40
8.8900000000000006
 49
6.3499999999999996
 74
0
 49
-2.54
 74
0
  0
LTYPE
  5
5F
100
AcDbSymbolTableRecord
100
AcDbLinetypeTableRecord
  2
ACAD_ISO06W100
 70
0
  3
ISO long-dash triple-dot ____ ... ____ ... ____
 72
65
 73
8
 40
36.000000000000007
 49
24.0
 74
0
 49
-2.9500000000000002
 74
0
 49
0.1
 74
0
 49
-2.9000000000000004
 74
0
 49
0.1
 74
0
 49
-2.9000000000000004
 74
0
 49
0.1
 74
0
 49
-2.9500000000000002
 74
0
  0
ENDTAB
  0
TABLE
  2
LAYER
  5
2
100
AcDbSymbolTable
 70
1
  0
LAYER
  5
10
100
AcDbSymbolTableRecord
100
AcDbLayerTableRecord
  2
0
 70
0
 62
7
420
0
  6
Continuous
370
25
390
F
  0
ENDTAB
  0
TABLE
  2
STYLE
  5
3
100
AcDbSymbolTable
 70
8
  0
STYLE
  5
60
100
AcDbSymbolTableRecord
100
AcDbTextStyleTableRecord
  2
Standard
 70
0
 40
0.0
 41
1.0
 50
0.0
 71
0
 42
2.5
  3

  4

1001
ACAD
1000
txt
1071
0
  0
STYLE
  5
61
100
AcDbSymbolTableRecord
100
AcDbTextStyleTableRecord
  2
textstyle0
 70
0
 40
0.0
 41
1.0
 50
0.0
 71
0
 42
10.0
  3

  4

1001
ACAD
1000
Arial
1071
0
  0
STYLE
  5
62
100
AcDbSymbolTableRecord
100
AcDbTextStyleTableRecord
  2
textstyle1
 70
0
 40
0.0
 41
1.0
 50
0.0
 71
0
 42
7.5
  3

  4

1001
ACAD
1000
unicode
1071
0
  0
STYLE
  5
63
100
AcDbSymbolTableRecord
100
AcDbTextStyleTableRecord
  2
textstyle2
 70
0
 40
0.0
 41
1.0
 50
0.0
 71
0
 42
7.5
  3

  4

1001
ACAD
1000
unicode
1071
0
  0
STYLE
  5
64
100
AcDbSymbolTableRecord
100
AcDbTextStyleTableRecord
  2
textstyle3
 70
0
 40
0.0
 41
1.0
 50
0.0
 71
0
 42
7.5
  3

  4

1001
ACAD
1000
unicode
1071
0
  0
STYLE
  5
65
100
AcDbSymbolTableRecord
100
AcDbTextStyleTableRecord
  2
textstyle4
 70
0
 40
0.0
 41
1.0
 50
0.0
 71
0
 42
15.0
  3

  4

1001
ACAD
1000
unicode
1071
0
  0
STYLE
  5
66
100
AcDbSymbolTableRecord
100
AcDbTextStyleTableRecord
  2
textstyle5
 70
0
 40
0.0
 41
1.0
 50
0.0
 71
0
 42
7.5
  3

  4

1001
ACAD
1000
unicode
1071
0
  0
STYLE
  5
67
100
AcDbSymbolTableRecord
100
AcDbTextStyleTableRecord
  2
textstyle6
 70
0
 40
0.0
 41
1.0
 50
0.0
 71
0
 42
7.5
  3

  4

1001
ACAD
1000
unicode
1071
0
  0
ENDTAB
  0
TABLE
  2
VIEW
  5
6
100
AcDbSymbolTable
 70
0
  0
ENDTAB
  0
TABLE
  2
UCS
  5
7
100
AcDbSymbolTable
 70
0
  0
ENDTAB
  0
TABLE
  2
APPID
  5
9
100
AcDbSymbolTable
 70
1
  0
APPID
  5
12
100
AcDbSymbolTableRecord
100
AcDbRegAppTableRecord
  2
ACAD
 70
0
  0
APPID
  5
68
100
AcDbSymbolTableRecord
100
AcDbRegAppTableRecord
  2
QCAD
 70
0
  0
ENDTAB
  0
TABLE
  2
DIMSTYLE
  5
A
100
AcDbSymbolTable
 70
1
100
AcDbDimStyleTable
 71
0
  0
DIMSTYLE
105
27
100
AcDbSymbolTableRecord
100
AcDbDimStyleTableRecord
  2
Standard
 41
2.5
 42
0.625
 43
3.75
 44
1.25
 70
0
 73
0
 74
0
 77
1
 78
8
140
2.5
141
2.5
143
0.03937007874016
147
0.625
171
3
172
1
271
2
272
2
274
3
278
44
283
0
284
8
340
60
  0
ENDTAB
  0
TABLE
  2
BLOCK_RECORD
  5
1
100
AcDbSymbolTable
 70
1
  0
BLOCK_RECORD
  5
1F
100
AcDbSymbolTableRecord
100
AcDbBlockTableRecord
  2
*Model_Space
340
22
  0
BLOCK_RECORD
  5
1B
100
AcDbSymbolTableRecord
100
AcDbBlockTableRecord
  2
*Paper_Space
340
1E
  0
BLOCK_RECORD
  5
23
100
AcDbSymbolTableRecord
100
AcDbBlockTableRecord
  2
*Paper_Space0
340
26
  0
ENDTAB
  0
ENDSEC
  0
SECTION
  2
BLOCKS
  0
BLOCK
  5
20
100
AcDbEntity
  8
0
100
AcDbBlockBegin
  2
*Model_Space
 70
0
 10
0.0
 20
0.0
 30
0.0
  3
*Model_Space
  1

  0
ENDBLK
  5
21
100
AcDbEntity
  8
0
100
AcDbBlockEnd
  0
BLOCK
  5
1C
100
AcDbEntity
 67
1
  8
0
100
AcDbBlockBegin
  2
*Paper_Space
 70
0
 10
0.0
 20
0.0
 30
0.0
  3
*Paper_Space
  1

  0
ENDBLK
  5
1D
100
AcDbEntity
 67
1
  8
0
100
AcDbBlockEnd
  0
BLOCK
  5
24
100
AcDbEntity
  8
0
100
AcDbBlockBegin
  2
*Paper_Space0
 70
0
 10
0.0
 20
0.0
 30
0.0
  3
*Paper_Space0
  1

  0
ENDBLK
  5
25
100
AcDbEntity
  8
0
100
AcDbBlockEnd
  0
ENDSEC
  0
SECTION
  2
ENTITIES
  0
LINE
  5
69
100
AcDbEntity
  8
0
 62
256
370
211
 48
1.0
  6
ByLayer
100
AcDbLine
 10
144.13203779340245
 20
281.79052945468027
 30
0.0
 11
195.38203779340245
 21
281.79052945468027
 31
0.0
  0
LINE
  5
6A
100
AcDbEntity
  8
0
 62
256
370
211
 48
1.0
  6
ByLayer
100
AcDbLine
 10
247.13203779340245
 20
281.79052945468027
 30
0.0
 11
293.63203779340245
 21
281.79052945468027
 31
0.0
  0
LINE
  5
6B
100
AcDbEntity
  8
0
 62
256
370
0
 48
1.0
  6
Continuous
100
AcDbLine
 10
275.0
 20
65.0
 30
0.0
 11
80.0
 21
65.0
 31
0.0
  0
LINE
  5
6C
100
AcDbEntity
  8
0
 62
256
370
211
 48
1.0
  6
ByLayer
100
AcDbLine
 10
293.63203779340245
 20
281.79052945468027
 30
0.0
 11
293.63203779340245
 21
364.79052945468027
 31
0.0
  0
LINE
  5
6D
100
AcDbEntity
  8
0
 62
256
370
211
 48
1.0
  6
ByLayer
100
AcDbLine
 10
293.63203779340245
 20
364.79052945468027
 30
0.0
 11
351.13203779340245
 21
364.79052945468027
 31
0.0
  0
LINE
  5
6E
100
AcDbEntity
  8
0
 62
256
370
211
 48
1.0
  6
ByLayer
100
AcDbLine
 10
396.13203779340245
 20
364.79052945468027
 30
0.0
 11
575.13203779340233
 21
364.79052945468027
 31
0.0
  0
LINE
  5
6F
100
AcDbEntity
  8
0
 62
256
370
211
 48
1.0
  6
ByLayer
100
AcDbLine
 10
575.13203779340233
 20
364.79052945468027
 30
0.0
 11
575.13203779340233
 21
750.09729670563593
 31
0.0
  0
LINE
  5
70
100
AcDbEntity
  8
0
 62
256
370
18
 48
1.0
  6
Continuous
100
AcDbLine
 10
20.0
 20
911.00000000000011
 30
0.0
 11
650.0
 21
911.00000000000011
 31
0.0
  0
LINE
  5
71
100
AcDbEntity
  8
0
 62
256
370
18
 48
1.0
  6
Continuous
100
AcDbLine
 10
650.0
 20
911.00000000000011
 30
0.0
 11
649.99999999999977
 21
20.0
 31
0.0
  0
LINE
  5
72
100
AcDbEntity
  8
0
 62
256
370
211
 48
1.0
  6
ByLayer
100
AcDbLine
 10
428.13203826373558
 20
724.540529705636
 30
0.0
 11
396.13203826373558
 21
724.540529705636
 31
0.0
  0
LINE
  5
73
100
AcDbEntity
  8
0
 62
256
370
18
 48
1.0
  6
Continuous
100
AcDbLine
 10
650.0
 20
19.999999999999886
 30
0.0
 11
20.0
 21
20.0
 31
0.0
  0
LINE
  5
74
100
AcDbEntity
  8
0
 62
256
370
18
 48
1.0
  6
Continuous
100
AcDbLine
 10
20.0
 20
20.0
 30
0.0
 11
20.0
 21
911.00000000000011
 31
0.0
  0
LINE
  5
75
100
AcDbEntity
  8
0
 62
256
370
211
 48
1.0
  6
ByLayer
100
AcDbLine
 10
396.13203826373558
 20
730.040529705636
 30
0.0
 11
382.63203826373558
 21
730.040529705636
 31
0.0
  0
LINE
  5
76
100
AcDbEntity
  8
0
 62
256
370
211
 48
1.0
  6
ByLayer
100
AcDbLine
 10
279.13203826373558
 20
724.54052970563589
 30
0.0
 11
264.13203779340245
 21
724.54052970563589
 31
0.0
  0
LINE
  5
77
100
AcDbEntity
  8
0
 62
256
370
211
 48
1.0
  6
ByLayer
100
AcDbLine
 10
144.13203779340245
 20
750.09729670563593
 30
0.0
 11
144.13203779340245
 21
281.79052945468027
 31
0.0
  0
LINE
  5
78
100
AcDbEntity
  8
0
 62
256
370
158
 48
1.0
  6
Continuous
100
AcDbLine
 10
80.0
 20
896.00000000000011
 30
0.0
 11
635.0
 21
896.00000000000011
 31
0.0
  0
LINE
  5
79
100
AcDbEntity
  8
0
 62
256
370
211
 48
1.0
  6
ByLayer
100
AcDbLine
 10
159.13203779340245
 20
403.54052945468027
 30
0.0
 11
212.13203779340245
 21
403.54052945468027
 31
0.0
  0
LINE
  5
7A
100
AcDbEntity
  8
0
 62
256
370
158
 48
1.0
  6
Continuous
100
AcDbLine
 10
635.0
 20
896.00000000000011
 30
0.0
 11
634.99999999999977
 21
35.0
 31
0.0
  0
LINE
  5
7B
100
AcDbEntity
  8
0
 62
256
370
211
 48
1.0
  6
ByLayer
100
AcDbLine
 10
212.13203779340245
 20
403.54052945468027
 30
0.0
 11
212.13203779340245
 21
433.54052945468027
 31
0.0
  0
LINE
  5
7C
100
AcDbEntity
  8
0
 62
256
370
158
 48
1.0
  6
Continuous
100
AcDbLine
 10
635.0
 20
34.999999999999886
 30
0.0
 11
80.0
 21
35.0
 31
0.0
  0
LINE
  5
7D
100
AcDbEntity
  8
0
 62
256
370
211
 48
1.0
  6
ByLayer
100
AcDbLine
 10
212.13203779340245
 20
433.54052945468027
 30
0.0
 11
159.13203779340245
 21
433.54052945468027
 31
0.0
  0
LINE
  5
7E
100
AcDbEntity
  8
0
 62
256
370
158
 48
1.0
  6
Continuous
100
AcDbLine
 10
80.0
 20
35.0
 30
0.0
 11
80.0
 21
896.00000000000011
 31
0.0
  0
LINE
  5
7F
100
AcDbEntity
  8
0
 62
256
370
211
 48
1.0
  6
ByLayer
100
AcDbLine
 10
159.13203779340245
 20
433.54052945468027
 30
0.0
 11
159.13203779340245
 21
403.54052945468027
 31
0.0
  0
LINE
  5
80
100
AcDbEntity
  8
0
 62
256
370
211
 48
1.0
  6
ByLayer
100
AcDbLine
 10
430.13203779340233
 20
428.29052945468027
 30
0.0
 11
409.63203779340233
 21
428.29052945468027
 31
0.0
  0
LINE
  5
81
100
AcDbEntity
  8
0
 62
256
370
211
 48
1.0
  6
ByLayer
100
AcDbLine
 10
409.63203779340233
 20
428.29052945468027
 30
0.0
 11
409.63203779340233
 21
468.79052945468027
 31
0.0
  0
LINE
  5
82
100
AcDbEntity
  8
0
 62
256
370
211
 48
1.0
  6
ByLayer
100
AcDbLine
 10
409.63203779340233
 20
468.79052945468027
 30
0.0
 11
430.13203779340233
 21
468.79052945468027
 31
0.0
  0
LINE
  5
83
100
AcDbEntity
  8
0
 62
256
370
211
 48
1.0
  6
ByLayer
100
AcDbLine
 10
430.13203779340233
 20
468.79052945468027
 30
0.0
 11
430.13203779340233
 21
428.29052945468027
 31
0.0
  0
LINE
  5
84
100
AcDbEntity
  8
0
 62
256
370
211
 48
1.0
  6
ByLayer
100
AcDbLine
 10
299.63203779340245
 20
358.79052945468027
 30
0.0
 11
299.63203779340245
 21
281.79052945468027
 31
0.0
  0
LINE
  5
85
100
AcDbEntity
  8
0
 62
256
370
211
 48
1.0
  6
ByLayer
100
AcDbLine
 10
388.13203779340245
 20
281.79052945468027
 30
0.0
 11
299.63203779340245
 21
281.79052945468027
 31
0.0
  0
LINE
  5
86
100
AcDbEntity
  8
0
 62
256
370
211
 48
1.0
  6
ByLayer
100
AcDbLine
 10
388.13203779340245
 20
281.79052945468027
 30
0.0
 11
388.13203779340245
 21
246.79052945468027
 31
0.0
  0
LINE
  5
87
100
AcDbEntity
  8
0
 62
256
370
50
 48
1.0
  6
Continuous
100
AcDbLine
 10
275.0
 20
50.0
 30
0.0
 11
80.0
 21
50.0
 31
0.0
  0
LINE
  5
88
100
AcDbEntity
  8
0
 62
256
370
211
 48
1.0
  6
ByLayer
100
AcDbLine
 10
388.13203779340245
 20
246.79052945468027
 30
0.0
 11
493.63203779340233
 21
246.79052945468027
 31
0.0
  0
LINE
  5
89
100
AcDbEntity
  8
0
 62
256
370
158
 48
1.0
  6
Continuous
100
AcDbLine
 10
634.99999999999977
 20
80.0
 30
0.0
 11
79.999999999999773
 21
80.0
 31
0.0
  0
LINE
  5
8A
100
AcDbEntity
  8
0
 62
256
370
211
 48
1.0
  6
ByLayer
100
AcDbLine
 10
493.63203779340233
 20
246.79052945468027
 30
0.0
 11
493.63203779340233
 21
338.29052945468027
 31
0.0
  0
LINE
  5
8B
100
AcDbEntity
  8
0
 62
256
370
50
 48
1.0
  6
Continuous
100
AcDbLine
 10
114.0
 20
35.0
 30
0.0
 11
114.0
 21
80.0
 31
0.0
  0
LINE
  5
8C
100
AcDbEntity
  8
0
 62
256
370
211
 48
1.0
  6
ByLayer
100
AcDbLine
 10
493.63203779340233
 20
338.29052945468027
 30
0.0
 11
463.63203779340233
 21
338.29052945468027
 31
0.0
  0
LINE
  5
8D
100
AcDbEntity
  8
0
 62
256
370
50
 48
1.0
  6
Continuous
100
AcDbLine
 10
173.25471231517713
 20
35.0
 30
0.0
 11
173.25471231517713
 21
80.0
 31
0.0
  0
LINE
  5
8E
100
AcDbEntity
  8
0
 62
256
370
211
 48
1.0
  6
ByLayer
100
AcDbLine
 10
463.63203779340233
 20
338.29052945468027
 30
0.0
 11
463.63203779340233
 21
358.29052945468027
 31
0.0
  0
LINE
  5
8F
100
AcDbEntity
  8
0
 62
256
370
211
 48
1.0
  6
ByLayer
100
AcDbLine
 10
463.63203779340233
 20
358.29052945468027
 30
0.0
 11
396.13203779340245
 21
358.29052945468027
 31
0.0
  0
LINE
  5
90
100
AcDbEntity
  8
0
 62
256
370
50
 48
1.0
  6
Continuous
100
AcDbLine
 10
240.0
 20
34.999999999999886
 30
0.0
 11
240.0
 21
79.999999999999886
 31
0.0
  0
LINE
  5
91
100
AcDbEntity
  8
0
 62
256
370
211
 48
1.0
  6
ByLayer
100
AcDbLine
 10
299.63203779340245
 20
358.79052945468027
 30
0.0
 11
351.13203779340245
 21
358.79052945468027
 31
0.0
  0
LINE
  5
92
100
AcDbEntity
  8
0
 62
256
370
158
 48
1.0
  6
Continuous
100
AcDbLine
 10
275.0
 20
35.0
 30
0.0
 11
275.0
 21
80.0
 31
0.0
  0
LINE
  5
93
100
AcDbEntity
  8
0
 62
256
370
211
 48
1.0
  6
ByLayer
100
AcDbLine
 10
351.13203779340245
 20
364.79052945468027
 30
0.0
 11
351.13203779340245
 21
358.79052945468027
 31
0.0
  0
LINE
  5
94
100
AcDbEntity
  8
0
 62
256
370
158
 48
1.0
  6
Continuous
100
AcDbLine
 10
604.99999999999977
 20
80.0
 30
0.0
 11
604.99999999999977
 21
35.0
 31
0.0
  0
LINE
  5
95
100
AcDbEntity
  8
0
 62
256
370
211
 48
1.0
  6
ByLayer
100
AcDbLine
 10
396.13203779340245
 20
364.79052945468027
 30
0.0
 11
396.13203779340245
 21
358.29052945468027
 31
0.0
  0
LINE
  5
96
100
AcDbEntity
  8
0
 62
256
370
158
 48
1.0
  6
Continuous
100
AcDbLine
 10
634.99999999999977
 20
64.0
 30
0.0
 11
604.99999999999977
 21
64.0
 31
0.0
  0
LINE
  5
97
100
AcDbEntity
  8
0
 62
256
370
158
 48
1.0
  6
Continuous
100
AcDbLine
 10
80.0
 20
854.00000000000011
 30
0.0
 11
290.0
 21
854.00000000000011
 31
0.0
  0
LINE
  5
98
100
AcDbEntity
  8
0
 62
256
370
158
 48
1.0
  6
Continuous
100
AcDbLine
 10
290.0
 20
854.00000000000011
 30
0.0
 11
290.0
 21
896.00000000000011
 31
0.0
  0
LINE
  5
99
100
AcDbEntity
  8
0
 62
256
370
211
 48
1.0
  6
ByLayer
100
AcDbLine
 10
264.13203779340245
 20
750.09729670563593
 30
0.0
 11
264.13203779340245
 21
724.54052970563589
 31
0.0
  0
LINE
  5
9A
100
AcDbEntity
  8
0
 62
256
370
211
 48
1.0
  6
ByLayer
100
AcDbLine
 10
428.13203826373558
 20
713.040529705636
 30
0.0
 11
428.13203826373558
 21
724.540529705636
 31
0.0
  0
LINE
  5
9B
100
AcDbEntity
  8
0
 62
256
370
211
 48
1.0
  6
ByLayer
100
AcDbLine
 10
428.13203826373558
 20
713.040529705636
 30
0.0
 11
445.63203826373558
 21
713.040529705636
 31
0.0
  0
LINE
  5
9C
100
AcDbEntity
  8
0
 62
256
370
211
 48
1.0
  6
ByLayer
100
AcDbLine
 10
445.63203826373558
 20
713.040529705636
 30
0.0
 11
445.63203826373558
 21
724.540529705636
 31
0.0
  0
LINE
  5
9D
100
AcDbEntity
  8
0
 62
256
370
211
 48
1.0
  6
ByLayer
100
AcDbLine
 10
445.63203826373558
 20
724.540529705636
 30
0.0
 11
428.13203826373558
 21
724.540529705636
 31
0.0
  0
LINE
  5
9E
100
AcDbEntity
  8
0
 62
256
370
-1
 48
1.0
  6
ByLayer
100
AcDbLine
 10
217.6652441919465
 20
266.85657269953697
 30
0.0
 11
217.6652441919465
 21
208.66221036748459
 31
0.0
  0
MTEXT
  5
9F
100
AcDbEntity
  8
0
 62
256
370
18
 48
1.0
  6
Continuous
100
AcDbMText
 10
87.657674093193123
 20
45.825459698271516
 30
0.0
 40
7.5
 41
100.0
 71
1
 72
5
  1
\U+0418\U+0437\U+043c.
  7
textstyle1
 50
0.0
 73
1
 44
1.0
  0
LINE
  5
A0
100
AcDbEntity
  8
0
 62
256
370
-1
 48
1.0
  6
ByLayer
100
AcDbLine
 10
217.6652441919465
 20
266.85657269953697
 30
0.0
 11
207.6652441919465
 21
246.85657269953697
 31
0.0
  0
LINE
  5
A1
100
AcDbEntity
  8
0
 62
256
370
-1
 48
1.0
  6
ByLayer
100
AcDbLine
 10
217.6652441919465
 20
266.85657269953697
 30
0.0
 11
227.6652441919465
 21
246.85657269953697
 31
0.0
  0
MTEXT
  5
A2
100
AcDbEntity
  8
0
 62
256
370
18
 48
1.0
  6
Continuous
100
AcDbMText
 10
124.50652698757449
 20
45.825459698271402
 30
0.0
 40
7.5
 41
100.0
 71
1
 72
5
  1
N\~\U+0434\U+043e\U+043a\U+0443\U+043c.
  7
textstyle2
 50
0.0
 73
1
 44
1.0
  0
MTEXT
  5
A3
100
AcDbEntity
  8
0
 62
256
370
18
 48
1.0
  6
Continuous
100
AcDbMText
 10
196.91859746451473
 20
45.825459698271402
 30
0.0
 40
7.5
 41
100.0
 71
1
 72
5
  1
\U+041f\U+043e\U+0434\U+043f.
  7
textstyle3
 50
0.0
 73
1
 44
1.0
  0
MTEXT
  5
A4
100
AcDbEntity
  8
0
 62
256
370
18
 48
1.0
  6
Continuous
100
AcDbMText
 10
378.60647062243294
 20
67.976652662314251
 30
0.0
 40
15.0
 41
200.0
 71
1
 72
5
  1
\U+0413\U+0438\U+043f\U+0441\U+043e\U+043a\U+0430\U+0440\U+0442\U+043e\U+043d
  7
textstyle4
 50
0.0
 73
1
 44
1.0
  0
MTEXT
  5
A5
100
AcDbEntity
  8
0
 62
256
370
18
 48
1.0
  6
Continuous
100
AcDbMText
 10
244.1362175596679
 20
45.825459698271402
 30
0.0
 40
7.5
 41
100.0
 71
1
 72
5
  1
\U+0414\U+0430\U+0442\U+0430
  7
textstyle5
 50
0.0
 73
1
 44
1.0
  0
LINE
  5
A6
100
AcDbEntity
  8
0
 62
256
370
-1
 48
1.0
  6
ByLayer
100
AcDbLine
 10
292.63203826373558
 20
730.040529705636
 30
0.0
 11
382.63203826373558
 21
730.040529705636
 31
0.0
  0
MTEXT
  5
A7
100
AcDbEntity
  8
0
 62
256
370
18
 48
1.0
  6
Continuous
100
AcDbMText
 10
608.82526376892793
 20
76.558838691520577
 30
0.0
 40
7.5
 41
100.0
 71
1
 72
5
  1
\U+041b\U+0438\U+0441\U+0442
  7
textstyle6
 50
0.0
 73
1
 44
1.0
  0
DIMENSION
  5
A8
100
AcDbEntity
  8
0
 62
256
370
-1
 48
1.0
  6
ByLayer
100
AcDbDimension
 10
144.13203779340245
 20
271.79052945468027
 30
0.0
 11
169.75703779340245
 21
275.54052945468027
 31
0.0
 70
1
 71
8
 72
2
 74
0
 75
0
 41
1.0
 42
0.0
  1

  3
Standard
100
AcDbAlignedDimension
 13
144.13203779340245
 23
281.79052945468027
 33
0.0
 14
195.38203779340245
 24
281.79052945468027
 34
0.0
1001
ACAD
1000
DSTYLE
1002
{
1070
144
1040
20.0
1070
40
1040
2.0
1002
}
  0
DIMENSION
  5
A9
100
AcDbEntity
  8
0
 62
256
370
-1
 48
1.0
  6
ByLayer
100
AcDbDimension
 10
247.13203779340245
 20
271.37424479690742
 30
0.0
 11
221.25703779340245
 21
275.12424479690742
 31
0.0
 70
1
 71
8
 72
2
 74
0
 75
0
 41
1.0
 42
0.0
  1

  3
Standard
100
AcDbAlignedDimension
 13
247.13203779340245
 23
281.79052945468027
 33
0.0
 14
195.38203779340245
 24
281.79052945468027
 34
0.0
1001
ACAD
1000
DSTYLE
1002
{
1070
144
1040
20.0
1070
40
1040
2.0
1002
}
  0
DIMENSION
  5
AA
100
AcDbEntity
  8
0
 62
256
370
-1
 48
1.0
  6
ByLayer
100
AcDbDimension
 10
293.63203779340245
 20
271.37424479690742
 30
0.0
 11
270.38203779340245
 21
275.12424479690742
 31
0.0
 70
1
 71
8
 72
2
 74
0
 75
0
 41
1.0
 42
0.0
  1

  3
Standard
100
AcDbAlignedDimension
 13
293.63203779340245
 23
281.79052945468027
 33
0.0
 14
247.13203779340245
 24
281.79052945468027
 34
0.0
1001
ACAD
1000
DSTYLE
1002
{
1070
144
1040
20.0
1070
40
1040
2.0
1002
}
  0
DIMENSION
  5
AB
100
AcDbEntity
  8
0
 62
256
370
-1
 48
1.0
  6
ByLayer
100
AcDbDimension
 10
388.13203779340245
 20
235.20849275987973
 30
0.0
 11
440.88203779340239
 21
238.95849275987973
 31
0.0
 70
1
 71
8
 72
2
 74
0
 75
0
 41
1.0
 42
0.0
  1

  3
Standard
100
AcDbAlignedDimension
 13
388.13203779340245
 23
246.79052945468027
 33
0.0
 14
493.63203779340233
 24
246.79052945468027
 34
0.0
1001
ACAD
1000
DSTYLE
1002
{
1070
144
1040
20.0
1070
40
1040
2.0
1002
}
  0
DIMENSION
  5
AC
100
AcDbEntity
  8
0
 62
256
370
-1
 48
1.0
  6
ByLayer
100
AcDbDimension
 10
504.13203779340233
 20
246.79052945468027
 30
0.0
 11
500.38203779340233
 21
292.54052945468027
 31
0.0
 70
1
 71
8
 72
2
 74
0
 75
0
 41
1.0
 42
0.0
  1

  3
Standard
100
AcDbAlignedDimension
 13
493.63203779340233
 23
246.79052945468027
 33
0.0
 14
493.63203779340233
 24
338.29052945468027
 34
0.0
1001
ACAD
1000
DSTYLE
1002
{
1070
144
1040
20.0
1070
40
1040
2.0
1002
}
  0
CIRCLE
  5
AD
100
AcDbEntity
  8
0
 62
256
370
-1
 48
1.0
  6
ByLayer
100
AcDbCircle
 10
305.50637842279895
 20
287.9836041590122
 30
0.0
 40
3.0
  0
DIMENSION
  5
AE
100
AcDbEntity
  8
0
 62
256
370
-1
 48
1.0
  6
ByLayer
100
AcDbDimension
 10
299.63203779340245
 20
271.7292128504622
 30
0.0
 11
343.88203779340245
 21
275.4792128504622
 31
0.0
 70
1
 71
8
 72
2
 74
0
 75
0
 41
1.0
 42
0.0
  1

  3
Standard
100
AcDbAlignedDimension
 13
299.63203779340245
 23
281.79052945468027
 33
0.0
 14
388.13203779340245
 24
281.79052945468027
 34
0.0
1001
ACAD
1000
DSTYLE
1002
{
1070
144
1040
20.0
1070
40
1040
2.0
1002
}
  0
MTEXT
  5
AF
100
AcDbEntity
  8
0
 62
256
370
-1
 48
1.0
  6
ByLayer
100
AcDbMText
 10
617.01592671029107
 20
54.820586230542034
 30
0.0
 40
10.0
 41
0.0
 71
1
 72
1
  1
\c0;3
  7
textstyle0
 50
0.0
 73
2
 44
1.0
  0
LINE
  5
B0
100
AcDbEntity
  8
0
 62
256
370
90
 48
1.0
  6
ByLayer
100
AcDbLine
 10
264.13203779340245
 20
731.79052945468027
 30
0.0
 11
144.13203779340245
 21
731.79052945468027
 31
0.0
  0
LINE
  5
B1
100
AcDbEntity
  8
0
 62
256
370
90
 48
1.0
  6
ByLayer
100
AcDbLine
 10
445.63203826373558
 20
718.790529705636
 30
0.0
 11
575.13203779340233
 21
718.79052970563589
 31
0.0
  0
LINE
  5
B2
100
AcDbEntity
  8
0
 62
256
370
-1
 48
1.0
  6
ByLayer
100
AcDbLine
 10
144.13203779340245
 20
750.09729670563593
 30
0.0
 11
264.13203779340245
 21
750.09729670563593
 31
0.0
  0
LINE
  5
B3
100
AcDbEntity
  8
0
 62
256
370
-1
 48
1.0
  6
ByLayer
100
AcDbLine
 10
437.88203779340233
 20
750.09729670563593
 30
0.0
 11
575.13203779340233
 21
750.09729670563593
 31
0.0
  0
LINE
  5
B4
100
AcDbEntity
  8
0
 62
256
370
211
 48
1.0
  6
ByLayer
100
AcDbLine
 10
279.13203826373558
 20
724.54052970563589
 30
0.0
 11
279.13203826373558
 21
730.040529705636
 31
0.0
  0
LINE
  5
B5
100
AcDbEntity
  8
0
 62
256
370
211
 48
1.0
  6
ByLayer
100
AcDbLine
 10
279.13203826373558
 20
730.040529705636
 30
0.0
 11
292.63203826373558
 21
730.040529705636
 31
0.0
  0
LINE
  5
B6
100
AcDbEntity
  8
0
 62
256
370
211
 48
1.0
  6
ByLayer
100
AcDbLine
 10
396.13203826373558
 20
730.040529705636
 30
0.0
 11
396.13203826373558
 21
724.540529705636
 31
0.0
  0
LINE
  5
B7
100
AcDbEntity
  8
0
 62
256
370
211
 48
1.0
  6
ByLayer
100
AcDbLine
 10
437.88203779340233
 20
750.09729670563593
 30
0.0
 11
437.88203779340233
 21
724.54052900651595
 31
0.0
  0
LINE
  5
B8
100
AcDbEntity
  8
0
 62
256
370
-1
 48
1.0
  6
ByLayer
100
AcDbLine
 10
147.63203779340245
 20
285.29052945468027
 30
0.0
 11
195.38203779340245
 21
285.29052945468027
 31
0.0
  0
LINE
  5
B9
100
AcDbEntity
  8
0
 62
256
370
-1
 48
1.0
  6
ByLayer
100
AcDbLine
 10
195.38203779340245
 20
281.79052945468027
 30
0.0
 11
195.38203779340245
 21
285.29052945468027
 31
0.0
  0
LINE
  5
BA
100
AcDbEntity
  8
0
 62
256
370
-1
 48
1.0
  6
ByLayer
100
AcDbLine
 10
147.63203779340245
 20
285.29052945468027
 30
0.0
 11
147.63203779340245
 21
400.04052945468027
 31
0.0
  0
LINE
  5
BB
100
AcDbEntity
  8
0
 62
256
370
-1
 48
1.0
  6
ByLayer
100
AcDbLine
 10
147.63203779340245
 20
400.04052945468027
 30
0.0
 11
215.63203779340245
 21
400.04052945468027
 31
0.0
  0
LINE
  5
BC
100
AcDbEntity
  8
0
 62
256
370
-1
 48
1.0
  6
ByLayer
100
AcDbLine
 10
215.63203779340245
 20
400.04052945468027
 30
0.0
 11
215.63203779340245
 21
437.04052945468027
 31
0.0
  0
LINE
  5
BD
100
AcDbEntity
  8
0
 62
256
370
-1
 48
1.0
  6
ByLayer
100
AcDbLine
 10
147.63203779340245
 20
437.04052945468027
 30
0.0
 11
215.63203779340245
 21
437.04052945468027
 31
0.0
  0
LINE
  5
BE
100
AcDbEntity
  8
0
 62
256
370
-1
 48
1.0
  6
ByLayer
100
AcDbLine
 10
147.63203779340245
 20
437.04052945468027
 30
0.0
 11
147.63203779340245
 21
731.79052945468027
 31
0.0
  0
LINE
  5
BF
100
AcDbEntity
  8
0
 62
256
370
-1
 48
1.0
  6
ByLayer
100
AcDbLine
 10
247.13203779340245
 20
285.29052945468027
 30
0.0
 11
290.13203779340245
 21
285.29052945468027
 31
0.0
  0
LINE
  5
C0
100
AcDbEntity
  8
0
 62
256
370
-1
 48
1.0
  6
ByLayer
100
AcDbLine
 10
247.13203779340245
 20
281.79052945468027
 30
0.0
 11
247.13203779340245
 21
285.29052945468027
 31
0.0
  0
LINE
  5
C1
100
AcDbEntity
  8
0
 62
256
370
-1
 48
1.0
  6
ByLayer
100
AcDbLine
 10
290.13203779340245
 20
285.29052945468027
 30
0.0
 11
290.13203779340245
 21
368.29052945468027
 31
0.0
  0
LINE
  5
C2
100
AcDbEntity
  8
0
 62
256
370
-1
 48
1.0
  6
ByLayer
100
AcDbLine
 10
290.13203779340245
 20
368.29052945468027
 30
0.0
 11
351.13203779340245
 21
368.29052945468027
 31
0.0
  0
LINE
  5
C3
100
AcDbEntity
  8
0
 62
256
370
-1
 48
1.0
  6
ByLayer
100
AcDbLine
 10
351.13203779340245
 20
364.79052945468027
 30
0.0
 11
351.13203779340245
 21
368.29052945468027
 31
0.0
  0
LINE
  5
C4
100
AcDbEntity
  8
0
 62
256
370
-1
 48
1.0
  6
ByLayer
100
AcDbLine
 10
396.13203779340245
 20
368.29052945468027
 30
0.0
 11
571.63203779340245
 21
368.29052945468027
 31
0.0
  0
LINE
  5
C5
100
AcDbEntity
  8
0
 62
256
370
-1
 48
1.0
  6
ByLayer
100
AcDbLine
 10
571.63203779340245
 20
368.29052945468027
 30
0.0
 11
571.63203779340245
 21
718.79052970563589
 31
0.0
  0
LINE
  5
C6
100
AcDbEntity
  8
0
 62
256
370
70
 48
1.0
  6
ByLayer
100
AcDbLine
 10
428.13203826373558
 20
713.040529705636
 30
0.0
 11
428.13203826373558
 21
472.29052945468027
 31
0.0
  0
LINE
  5
C7
100
AcDbEntity
  8
0
 62
256
370
70
 48
1.0
  6
ByLayer
100
AcDbLine
 10
423.13203779340245
 20
472.29052945468027
 30
0.0
 11
423.13203779340245
 21
724.540529705636
 31
0.0
  0
LINE
  5
C8
100
AcDbEntity
  8
0
 62
256
370
-1
 48
1.0
  6
ByLayer
100
AcDbLine
 10
382.63203826373558
 20
730.040529705636
 30
0.0
 11
382.63203826373558
 21
721.04052945468027
 31
0.0
  0
LINE
  5
C9
100
AcDbEntity
  8
0
 62
256
370
-1
 48
1.0
  6
ByLayer
100
AcDbLine
 10
382.63203779340245
 20
721.04052945468027
 30
0.0
 11
423.13203779340245
 21
721.04052945468027
 31
0.0
  0
LINE
  5
CA
100
AcDbEntity
  8
0
 62
256
370
-1
 48
1.0
  6
ByLayer
100
AcDbLine
 10
428.13203779340245
 20
709.54052945468027
 30
0.0
 11
449.13203779340245
 21
709.54052945468027
 31
0.0
  0
LINE
  5
CB
100
AcDbEntity
  8
0
 62
256
370
-1
 48
1.0
  6
ByLayer
100
AcDbLine
 10
449.13203779340245
 20
709.54052945468027
 30
0.0
 11
449.13203779340245
 21
718.790529705636
 31
0.0
  0
LINE
  5
CC
100
AcDbEntity
  8
0
 62
256
370
-1
 48
1.0
  6
ByLayer
100
AcDbLine
 10
396.13203779340245
 20
364.79052945468027
 30
0.0
 11
396.13203779340245
 21
368.29052945468027
 31
0.0
  0
LINE
  5
CD
100
AcDbEntity
  8
0
 62
256
370
-1
 48
1.0
  6
ByLayer
100
AcDbLine
 10
260.63203779340245
 20
731.79052945468027
 30
0.0
 11
260.63203779340245
 21
721.04052945468027
 31
0.0
  0
LINE
  5
CE
100
AcDbEntity
  8
0
 62
256
370
-1
 48
1.0
  6
ByLayer
100
AcDbLine
 10
260.63203779340245
 20
721.04052945468027
 30
0.0
 11
292.63203826373558
 21
721.04052945468038
 31
0.0
  0
LINE
  5
CF
100
AcDbEntity
  8
0
 62
256
370
-1
 48
1.0
  6
ByLayer
100
AcDbLine
 10
292.63203826373558
 20
730.040529705636
 30
0.0
 11
292.63203826373558
 21
721.04052945468027
 31
0.0
  0
LINE
  5
D0
100
AcDbEntity
  8
0
 62
256
370
70
 48
1.0
  6
ByLayer
100
AcDbLine
 10
428.13203826373558
 20
561.79052945468027
 30
0.0
 11
571.63203779340233
 21
561.79052945468027
 31
0.0
  0
LINE
  5
D1
100
AcDbEntity
  8
0
 62
256
370
-1
 48
1.0
  6
ByLayer
100
AcDbLine
 10
433.63203779340245
 20
472.29052945468027
 30
0.0
 11
433.63203779340245
 21
424.79052945468027
 31
0.0
  0
LINE
  5
D2
100
AcDbEntity
  8
0
 62
256
370
-1
 48
1.0
  6
ByLayer
100
AcDbLine
 10
433.63203779340245
 20
472.29052945468027
 30
0.0
 11
406.13203779340245
 21
472.29052945468027
 31
0.0
  0
LINE
  5
D3
100
AcDbEntity
  8
0
 62
256
370
-1
 48
1.0
  6
ByLayer
100
AcDbLine
 10
406.13203779340245
 20
424.79052945468027
 30
0.0
 11
433.63203779340245
 21
424.79052945468027
 31
0.0
  0
LINE
  5
D4
100
AcDbEntity
  8
0
 62
256
370
-1
 48
1.0
  6
ByLayer
100
AcDbLine
 10
406.13203779340245
 20
472.29052945468027
 30
0.0
 11
406.13203779340245
 21
424.79052945468027
 31
0.0
  0
LINE
  5
D5
100
AcDbEntity
  8
0
 62
256
370
70
 48
1.0
  6
ByLayer
100
AcDbLine
 10
428.13203779340245
 20
566.79052945468027
 30
0.0
 11
571.63203779340245
 21
566.79052945468027
 31
0.0
  0
LINE
  5
D6
100
AcDbEntity
  8
0
 62
256
370
-1
 48
1.0
  6
ByLayer
100
AcDbLine
 10
423.13203779340245
 20
681.04052945468027
 30
0.0
 11
428.13203826373564
 21
681.04052945468027
 31
0.0
  0
LINE
  5
D7
100
AcDbEntity
  8
0
 62
256
370
-1
 48
1.0
  6
ByLayer
100
AcDbLine
 10
423.13203779340245
 20
681.79052945468015
 30
0.0
 11
423.13203779340245
 21
721.04052945468027
 31
0.0
  0
DIMENSION
  5
D8
100
AcDbEntity
  8
0
 62
256
370
-1
 48
1.0
  6
ByLayer
100
AcDbDimension
 10
419.11444294526672
 20
681.04052945468027
 30
0.0
 11
415.36444294526677
 21
701.04052945468038
 31
0.0
 70
1
 71
8
 72
2
 74
0
 75
0
 41
1.0
 42
0.0
  1

  3
Standard
100
AcDbAlignedDimension
 13
423.13203779340239
 23
681.04052945468027
 33
0.0
 14
423.13203779340245
 24
721.04052945468038
 34
0.0
1001
ACAD
1000
DSTYLE
1002
{
1070
144
1040
20.0
1070
40
1040
2.0
1002
}
  0
LINE
  5
D9
100
AcDbEntity
  8
0
 62
256
370
-1
 48
1.0
  6
ByLayer
100
AcDbLine
 10
423.1320377934025
 20
646.04052945468038
 30
0.0
 11
428.13203826373558
 21
646.04052945468027
 31
0.0
  0
DIMENSION
  5
DA
100
AcDbEntity
  8
0
 62
256
370
-1
 48
1.0
  6
ByLayer
100
AcDbDimension
 10
419.16602163005427
 20
681.04052945468027
 30
0.0
 11
415.41602163005427
 21
663.54052945468027
 31
0.0
 70
1
 71
8
 72
2
 74
0
 75
0
 41
1.0
 42
0.0
  1

  3
Standard
100
AcDbAlignedDimension
 13
423.13203779340239
 23
681.04052945468027
 33
0.0
 14
423.13203779340245
 24
646.04052945468027
 34
0.0
1001
ACAD
1000
DSTYLE
1002
{
1070
144
1040
20.0
1070
40
1040
2.0
1002
}
  0
LINE
  5
DB
100
AcDbEntity
  8
0
 62
256
370
70
 48
1.0
  6
ByLayer
100
AcDbLine
 10
276.63203802856901
 20
721.04052945468027
 30
0.0
 11
276.63203802856901
 21
651.04052945468027
 31
0.0
  0
LINE
  5
DC
100
AcDbEntity
  8
0
 62
256
370
70
 48
1.0
  6
ByLayer
100
AcDbLine
 10
276.63203802856901
 20
651.04052945468027
 30
0.0
 11
281.63203802856901
 21
651.04052945468027
 31
0.0
  0
LINE
  5
DD
100
AcDbEntity
  8
0
 62
256
370
70
 48
1.0
  6
ByLayer
100
AcDbLine
 10
281.63203802856901
 20
651.04052945468027
 30
0.0
 11
281.63203802856901
 21
721.04052945468027
 31
0.0
  0
DIMENSION
  5
DE
100
AcDbEntity
  8
0
 62
256
370
-1
 48
1.0
  6
ByLayer
100
AcDbDimension
 10
276.63203802856901
 20
691.27345979796269
 30
0.0
 11
212.13203791098573
 21
695.02345979796269
 31
0.0
 70
1
 71
8
 72
2
 74
0
 75
0
 41
1.0
 42
0.0
  1

  3
Standard
100
AcDbAlignedDimension
 13
276.63203802856901
 23
721.04052945468038
 33
0.0
 14
147.63203779340245
 24
721.04052945468038
 34
0.0
1001
ACAD
1000
DSTYLE
1002
{
1070
144
1040
20.0
1070
40
1040
2.0
1002
}
  0
DIMENSION
  5
DF
100
AcDbEntity
  8
0
 62
256
370
-1
 48
1.0
  6
ByLayer
100
AcDbDimension
 10
281.63203802856901
 20
691.79052945468027
 30
0.0
 11
352.38203791098573
 21
695.54052945468027
 31
0.0
 70
1
 71
8
 72
2
 74
0
 75
0
 41
1.0
 42
0.0
  1

  3
Standard
100
AcDbAlignedDimension
 13
281.63203802856901
 23
691.27345979796269
 33
0.0
 14
423.13203779340245
 24
691.27345979796269
 34
0.0
1001
ACAD
1000
DSTYLE
1002
{
1070
144
1040
20.0
1070
40
1040
2.0
1002
}
  0
DIMENSION
  5
E0
100
AcDbEntity
  8
0
 62
256
370
-1
 48
1.0
  6
ByLayer
100
AcDbDimension
 10
428.13203826373552
 20
551.68591879711266
 30
0.0
 11
499.88203802856901
 21
555.43591879711266
 31
0.0
 70
129
 71
8
 72
2
 74
0
 75
0
 41
1.0
 42
0.0
  1

  3
Standard
100
AcDbAlignedDimension
 13
428.13203826373552
 23
561.79052945468027
 33
0.0
 14
571.63203779340256
 24
561.79052945468027
 34
0.0
1001
ACAD
1000
DSTYLE
1002
{
1070
279
1070
2
1070
144
1040
20.0
1070
40
1040
2.0
1002
}
  0
DIMENSION
  5
E1
100
AcDbEntity
  8
0
 62
256
370
-1
 48
1.0
  6
ByLayer
100
AcDbDimension
 10
564.13203779340256
 20
718.79052970563589
 30
0.0
 11
560.38203779340256
 21
642.79052958015814
 31
0.0
 70
1
 71
8
 72
2
 74
0
 75
0
 41
1.0
 42
0.0
  1

  3
Standard
100
AcDbAlignedDimension
 13
571.63203779340256
 23
718.79052970563589
 33
0.0
 14
571.63203779340245
 24
566.79052945468027
 34
0.0
1001
ACAD
1000
DSTYLE
1002
{
1070
144
1040
20.0
1070
40
1040
2.0
1002
}
  0
DIMENSION
  5
E2
100
AcDbEntity
  8
0
 62
256
370
-1
 48
1.0
  6
ByLayer
100
AcDbDimension
 10
564.13203779340256
 20
561.79052945468027
 30
0.0
 11
560.38203779340256
 21
465.04052945468027
 31
0.0
 70
1
 71
8
 72
2
 74
0
 75
0
 41
1.0
 42
0.0
  1

  3
Standard
100
AcDbAlignedDimension
 13
571.63203779340256
 23
561.79052945468027
 33
0.0
 14
571.63203779340245
 24
368.29052945468027
 34
0.0
1001
ACAD
1000
DSTYLE
1002
{
1070
144
1040
20.0
1070
40
1040
2.0
1002
}
  0
DIMENSION
  5
E3
100
AcDbEntity
  8
0
 62
256
370
-1
 48
1.0
  6
ByLayer
100
AcDbDimension
 10
290.44083303708817
 20
651.04052945468027
 30
0.0
 11
287.21634158102069
 21
677.92614237597502
 31
0.0
 70
129
 71
8
 72
2
 74
0
 75
0
 41
1.0
 42
0.0
  1

  3
Standard
100
AcDbAlignedDimension
 13
281.63203802856901
 23
651.04052945468027
 33
0.0
 14
281.63203802856901
 24
721.04052945468038
 34
0.0
1001
ACAD
1000
DSTYLE
1002
{
1070
279
1070
2
1070
144
1040
20.0
1070
40
1040
2.0
1002
}
  0
LINE
  5
E4
100
AcDbEntity
  8
0
 62
256
370
-1
 48
1.0
  6
ByLayer
100
AcDbLine
 10
351.13203779340245
 20
358.79052945468027
 30
0.0
 11
351.13203779340245
 21
355.29052945468027
 31
0.0
  0
LINE
  5
E5
100
AcDbEntity
  8
0
 62
256
370
-1
 48
1.0
  6
ByLayer
100
AcDbLine
 10
303.13203779340245
 20
355.29052945468027
 30
0.0
 11
351.13203779340245
 21
355.29052945468027
 31
0.0
  0
LINE
  5
E6
100
AcDbEntity
  8
0
 62
256
370
-1
 48
1.0
  6
ByLayer
100
AcDbLine
 10
396.13203779340245
 20
355.29052945468027
 30
0.0
 11
460.13203779340245
 21
355.29052945468027
 31
0.0
  0
LINE
  5
E7
100
AcDbEntity
  8
0
 62
256
370
-1
 48
1.0
  6
ByLayer
100
AcDbLine
 10
396.13203779340245
 20
358.29052945468027
 30
0.0
 11
396.13203779340245
 21
355.29052945468027
 31
0.0
  0
LINE
  5
E8
100
AcDbEntity
  8
0
 62
256
370
-1
 48
1.0
  6
ByLayer
100
AcDbLine
 10
303.13203779340245
 20
355.29052945468027
 30
0.0
 11
303.13203779340245
 21
291.79052945468027
 31
0.0
  0
LINE
  5
E9
100
AcDbEntity
  8
0
 62
256
370
-1
 48
1.0
  6
ByLayer
100
AcDbLine
 10
303.13203779340245
 20
291.79052945468027
 30
0.0
 11
391.63203779340245
 21
291.79052945468027
 31
0.0
  0
LINE
  5
EA
100
AcDbEntity
  8
0
 62
256
370
-1
 48
1.0
  6
ByLayer
100
AcDbLine
 10
391.63203779340245
 20
250.29052945468027
 30
0.0
 11
391.63203779340245
 21
291.79052945468027
 31
0.0
  0
LINE
  5
EB
100
AcDbEntity
  8
0
 62
256
370
-1
 48
1.0
  6
ByLayer
100
AcDbLine
 10
391.63203779340245
 20
250.29052945468027
 30
0.0
 11
490.13203779340245
 21
250.29052945468027
 31
0.0
  0
LINE
  5
EC
100
AcDbEntity
  8
0
 62
256
370
-1
 48
1.0
  6
ByLayer
100
AcDbLine
 10
490.13203779340245
 20
250.29052945468027
 30
0.0
 11
490.13203779340245
 21
334.79052945468027
 31
0.0
  0
LINE
  5
ED
100
AcDbEntity
  8
0
 62
256
370
-1
 48
1.0
  6
ByLayer
100
AcDbLine
 10
490.13203779340245
 20
334.79052945468027
 30
0.0
 11
460.1320377934025
 21
334.79052945468027
 31
0.0
  0
LINE
  5
EE
100
AcDbEntity
  8
0
 62
256
370
-1
 48
1.0
  6
ByLayer
100
AcDbLine
 10
460.13203779340245
 20
355.29052945468027
 30
0.0
 11
460.13203779340245
 21
334.79052945468027
 31
0.0
  0
DIMENSION
  5
EF
100
AcDbEntity
  8
0
 62
256
370
-1
 48
1.0
  6
ByLayer
100
AcDbDimension
 10
391.63203779340245
 20
255.88819044878329
 30
0.0
 11
440.88203779340245
 21
259.63819044878329
 31
0.0
 70
1
 71
8
 72
2
 74
0
 75
0
 41
1.0
 42
0.0
  1

  3
Standard
100
AcDbAlignedDimension
 13
391.63203779340245
 23
250.29052945468027
 33
0.0
 14
490.13203779340245
 24
250.29052945468027
 34
0.0
1001
ACAD
1000
DSTYLE
1002
{
1070
144
1040
20.0
1070
40
1040
2.0
1002
}
  0
DIMENSION
  5
F0
100
AcDbEntity
  8
0
 62
256
370
-1
 48
1.0
  6
ByLayer
100
AcDbDimension
 10
399.57977555761471
 20
291.79052945468027
 30
0.0
 11
395.82977555761471
 21
271.04052945468027
 31
0.0
 70
1
 71
8
 72
2
 74
0
 75
0
 41
1.0
 42
0.0
  1

  3
Standard
100
AcDbAlignedDimension
 13
391.63203779340245
 23
291.79052945468027
 33
0.0
 14
391.63203779340245
 24
250.29052945468027
 34
0.0
1001
ACAD
1000
DSTYLE
1002
{
1070
144
1040
20.0
1070
40
1040
2.0
1002
}
  0
DIMENSION
  5
F1
100
AcDbEntity
  8
0
 62
256
370
-1
 48
1.0
  6
ByLayer
100
AcDbDimension
 10
480.06308230105793
 20
250.29052945468027
 30
0.0
 11
476.31308230105799
 21
292.54052945468027
 31
0.0
 70
1
 71
8
 72
2
 74
0
 75
0
 41
1.0
 42
0.0
  1

  3
Standard
100
AcDbAlignedDimension
 13
490.13203779340245
 23
250.29052945468027
 33
0.0
 14
490.1320377934025
 24
334.79052945468027
 34
0.0
1001
ACAD
1000
DSTYLE
1002
{
1070
144
1040
20.0
1070
40
1040
2.0
1002
}
  0
DIMENSION
  5
F2
100
AcDbEntity
  8
0
 62
256
370
-1
 48
1.0
  6
ByLayer
100
AcDbDimension
 10
490.1320377934025
 20
326.82700248226695
 30
0.0
 11
471.55042485703996
 21
330.69639222954788
 31
0.0
 70
129
 71
8
 72
2
 74
0
 75
0
 41
1.0
 42
0.0
  1

  3
Standard
100
AcDbAlignedDimension
 13
490.1320377934025
 23
334.79052945468027
 33
0.0
 14
460.13203779340239
 24
334.79052945468027
 34
0.0
1001
ACAD
1000
DSTYLE
1002
{
1070
279
1070
2
1070
144
1040
20.0
1070
40
1040
2.0
1002
}
  0
DIMENSION
  5
F3
100
AcDbEntity
  8
0
 62
256
370
-1
 48
1.0
  6
ByLayer
100
AcDbDimension
 10
454.13203779340239
 20
334.79052945468027
 30
0.0
 11
449.10796432281063
 21
341.27272420544909
 31
0.0
 70
129
 71
8
 72
2
 74
0
 75
0
 41
1.0
 42
0.0
  1

  3
Standard
100
AcDbAlignedDimension
 13
460.13203779340239
 23
334.79052945468027
 33
0.0
 14
460.13203779340245
 24
355.29052945468027
 34
0.0
1001
ACAD
1000
DSTYLE
1002
{
1070
279
1070
2
1070
144
1040
20.0
1070
40
1040
2.0
1002
}
  0
DIMENSION
  5
F4
100
AcDbEntity
  8
0
 62
256
370
-1
 48
1.0
  6
ByLayer
100
AcDbDimension
 10
460.13203779340245
 20
347.9209750679799
 30
0.0
 11
428.13203779340245
 21
351.6709750679799
 31
0.0
 70
1
 71
8
 72
2
 74
0
 75
0
 41
1.0
 42
0.0
  1

  3
Standard
100
AcDbAlignedDimension
 13
460.13203779340245
 23
354.45796013913457
 33
0.0
 14
396.13203779340245
 24
354.45796013913457
 34
0.0
1001
ACAD
1000
DSTYLE
1002
{
1070
144
1040
20.0
1070
40
1040
2.0
1002
}
  0
DIMENSION
  5
F5
100
AcDbEntity
  8
0
 62
256
370
-1
 48
1.0
  6
ByLayer
100
AcDbDimension
 10
351.13203779340245
 20
345.91599190218619
 30
0.0
 11
327.13203779340245
 21
349.66599190218619
 31
0.0
 70
1
 71
8
 72
2
 74
0
 75
0
 41
1.0
 42
0.0
  1

  3
Standard
100
AcDbAlignedDimension
 13
351.13203779340245
 23
355.29052945468027
 33
0.0
 14
303.13203779340245
 24
355.29052945468027
 34
0.0
1001
ACAD
1000
DSTYLE
1002
{
1070
144
1040
20.0
1070
40
1040
2.0
1002
}
  0
DIMENSION
  5
F6
100
AcDbEntity
  8
0
 62
256
370
-1
 48
1.0
  6
ByLayer
100
AcDbDimension
 10
310.84177068663877
 20
355.29052945468027
 30
0.0
 11
307.09177068663877
 21
323.54052945468027
 31
0.0
 70
1
 71
8
 72
2
 74
0
 75
0
 41
1.0
 42
0.0
  1

  3
Standard
100
AcDbAlignedDimension
 13
303.13203779340245
 23
355.29052945468027
 33
0.0
 14
303.13203779340245
 24
291.79052945468027
 34
0.0
1001
ACAD
1000
DSTYLE
1002
{
1070
144
1040
20.0
1070
40
1040
2.0
1002
}
  0
DIMENSION
  5
F7
100
AcDbEntity
  8
0
 62
256
370
-1
 48
1.0
  6
ByLayer
100
AcDbDimension
 10
303.13203779340245
 20
300.25719288427126
 30
0.0
 11
347.38203779340245
 21
304.00719288427126
 31
0.0
 70
1
 71
8
 72
2
 74
0
 75
0
 41
1.0
 42
0.0
  1

  3
Standard
100
AcDbAlignedDimension
 13
303.13203779340245
 23
291.79052945468027
 33
0.0
 14
391.63203779340245
 24
291.79052945468027
 34
0.0
1001
ACAD
1000
DSTYLE
1002
{
1070
144
1040
20.0
1070
40
1040
2.0
1002
}
  0
DIMENSION
  5
F8
100
AcDbEntity
  8
0
 62
256
370
-1
 48
1.0
  6
ByLayer
100
AcDbDimension
 10
159.13203779340245
 20
731.79052945468027
 30
0.0
 11
155.38203779340245
 21
584.41552945468027
 31
0.0
 70
1
 71
8
 72
2
 74
0
 75
0
 41
1.0
 42
0.0
  1

  3
Standard
100
AcDbAlignedDimension
 13
147.63203779340245
 23
731.79052945468027
 33
0.0
 14
147.63203779340245
 24
437.04052945468027
 34
0.0
1001
ACAD
1000
DSTYLE
1002
{
1070
144
1040
20.0
1070
40
1040
2.0
1002
}
  0
DIMENSION
  5
F9
100
AcDbEntity
  8
0
 62
256
370
-1
 48
1.0
  6
ByLayer
100
AcDbDimension
 10
419.20912336050708
 20
646.04052945468038
 30
0.0
 11
415.45912336050708
 21
559.16552945468038
 31
0.0
 70
1
 71
8
 72
2
 74
0
 75
0
 41
1.0
 42
0.0
  1

  3
Standard
100
AcDbAlignedDimension
 13
423.1320377934025
 23
646.04052945468038
 33
0.0
 14
423.13203779340245
 24
472.29052945468027
 34
0.0
1001
ACAD
1000
DSTYLE
1002
{
1070
144
1040
20.0
1070
40
1040
2.0
1002
}
  0
ENDSEC
  0
SECTION
  2
OBJECTS
  0
DICTIONARY
  5
C
100
AcDbDictionary
280
0
281
1
  3
ACAD_GROUP
350
D
  3
ACAD_LAYOUT
350
1A
  3
ACAD_MLINESTYLE
350
17
  3
ACAD_PLOTSETTINGS
350
19
  3
ACAD_PLOTSTYLENAME
350
E
  3
AcDbVariableDictionary
350
FA
  3
QCAD_OBJECTS
350
FB
  0
DICTIONARY
  5
D
100
AcDbDictionary
280
0
281
1
  0
ACDBDICTIONARYWDFLT
  5
E
100
AcDbDictionary
281
1
  3
Normal
350
F
100
AcDbDictionaryWithDefault
340
F
  0
ACDBPLACEHOLDER
  5
F
  0
DICTIONARY
  5
17
100
AcDbDictionary
280
0
281
1
  3
Standard
350
18
  0
MLINESTYLE
  5
18
100
AcDbMlineStyle
  2
STANDARD
 70
0
  3

 62
256
 51
90.0
 52
90.0
 71
2
 49
0.5
 62
256
  6
BYLAYER
 49
-0.5
 62
256
  6
BYLAYER
  0
DICTIONARY
  5
19
100
AcDbDictionary
280
0
281
1
  0
DICTIONARY
  5
1A
100
AcDbDictionary
281
1
  3
Layout1
350
1E
  3
Layout2
350
26
  3
Model
350
22
  0
LAYOUT
  5
1E
100
AcDbPlotSettings
  1

  2
none_device
  4

  6

 40
0.0
 41
0.0
 42
0.0
 43
0.0
 44
0.0
 45
0.0
 46
0.0
 47
0.0
 48
0.0
 49
0.0
140
0.0
141
0.0
142
1.0
143
1.0
 70
688
 72
0
 73
0
 74
5
  7

 75
16
147
1.0
148
0.0
149
0.0
100
AcDbLayout
  1
Layout1
 70
1
 71
1
 10
0.0
 20
0.0
 11
420.0
 21
297.0
 12
0.0
 22
0.0
 32
0.0
 14
100000000000000000000.0
 24
100000000000000000000.0
 34
100000000000000000000.0
 15
-100000000000000000000.0
 25
-100000000000000000000.0
 35
-100000000000000000000.0
146
0.0
 13
0.0
 23
0.0
 33
0.0
 16
1.0
 26
0.0
 36
0.0
 17
0.0
 27
1.0
 37
0.0
 76
0
330
1B
  0
LAYOUT
  5
22
100
AcDbPlotSettings
  1

  2
none_device
  4

  6

 40
0.0
 41
0.0
 42
0.0
 43
0.0
 44
0.0
 45
0.0
 46
0.0
 47
0.0
 48
0.0
 49
0.0
140
0.0
141
0.0
142
1.0
143
1.0
 70
1712
 72
0
 73
0
 74
0
  7

 75
0
147
1.0
148
0.0
149
0.0
100
AcDbLayout
  1
Model
 70
1
 71
0
 10
0.0
 20
0.0
 11
12.0
 21
9.0
 12
0.0
 22
0.0
 32
0.0
 14
0.0
 24
0.0
 34
0.0
 15
0.0
 25
0.0
 35
0.0
146
0.0
 13
0.0
 23
0.0
 33
0.0
 16
1.0
 26
0.0
 36
0.0
 17
0.0
 27
1.0
 37
0.0
 76
0
330
1F
  0
LAYOUT
  5
26
100
AcDbPlotSettings
  1

  2
none_device
  4

  6

 40
0.0
 41
0.0
 42
0.0
 43
0.0
 44
0.0
 45
0.0
 46
0.0
 47
0.0
 48
0.0
 49
0.0
140
0.0
141
0.0
142
1.0
143
1.0
 70
688
 72
0
 73
0
 74
5
  7

 75
16
147
1.0
148
0.0
149
0.0
100
AcDbLayout
  1
Layout2
 70
1
 71
2
 10
0.0
 20
0.0
 11
12.0
 21
9.0
 12
0.0
 22
0.0
 32
0.0
 14
0.0
 24
0.0
 34
0.0
 15
0.0
 25
0.0
 35
0.0
146
0.0
 13
0.0
 23
0.0
 33
0.0
 16
1.0
 26
0.0
 36
0.0
 17
0.0
 27
1.0
 37
0.0
 76
0
330
23
  0
DICTIONARY
  5
FA
100
AcDbDictionary
281
1
  3
DIMASSOC
350
FD
  3
HIDETEXT
350
FC
  0
DICTIONARYVAR
  5
FC
100
DictionaryVariables
280
0
  1
2
  0
DICTIONARYVAR
  5
FD
100
DictionaryVariables
280
0
  1
1
  0
DICTIONARY
  5
FB
100
AcDbDictionary
281
1
  3
ColorSettings/BackgroundColor
350
FE
  3
ColorSettings/ColorMode
350
FF
  3
DimensionSettings/AngularFormat
350
100
  3
DimensionSettings/AngularPrecision
350
101
  3
DimensionSettings/DecimalPoint
350
102
  3
DimensionSettings/DimensionFont
350
103
  3
DimensionSettings/KeepProportions
350
104
  3
DimensionSettings/LinearFormat
350
105
  3
DimensionSettings/LinearPrecision
350
106
  3
Grid/DisplayGrid00
350
107
  3
Grid/DisplayGrid01
350
108
  3
Grid/DisplayGrid02
350
109
  3
Grid/DisplayGrid03
350
10A
  3
Grid/GridSpacingX00
350
10B
  3
Grid/GridSpacingX01
350
10C
  3
Grid/GridSpacingX02
350
10D
  3
Grid/GridSpacingX03
350
10E
  3
Grid/GridSpacingY00
350
10F
  3
Grid/GridSpacingY01
350
110
  3
Grid/GridSpacingY02
350
111
  3
Grid/GridSpacingY03
350
112
  3
Grid/IsometricGrid00
350
113
  3
Grid/IsometricGrid01
350
114
  3
Grid/IsometricGrid02
350
115
  3
Grid/IsometricGrid03
350
116
  3
Grid/IsometricProjection00
350
117
  3
Grid/IsometricProjection01
350
118
  3
Grid/IsometricProjection02
350
119
  3
Grid/IsometricProjection03
350
11A
  3
Grid/MetaGridSpacingX00
350
11B
  3
Grid/MetaGridSpacingX01
350
11C
  3
Grid/MetaGridSpacingX02
350
11D
  3
Grid/MetaGridSpacingX03
350
11E
  3
Grid/MetaGridSpacingY00
350
11F
  3
Grid/MetaGridSpacingY01
350
120
  3
Grid/MetaGridSpacingY02
350
121
  3
Grid/MetaGridSpacingY03
350
122
  3
MultiPageSettings/Columns
350
123
  3
MultiPageSettings/GlueMarginsBottom
350
124
  3
MultiPageSettings/GlueMarginsLeft
350
125
  3
MultiPageSettings/GlueMarginsRight
350
126
  3
MultiPageSettings/GlueMarginsTop
350
127
  3
MultiPageSettings/PrintCropMarks
350
128
  3
MultiPageSettings/Rows
350
129
  3
PageSettings/OffsetX
350
12A
  3
PageSettings/OffsetY
350
12B
  3
PageSettings/PageOrientation
350
12C
  3
PageSettings/PaperHeight
350
12D
  3
PageSettings/PaperSizeName
350
12E
  3
PageSettings/PaperWidth
350
12F
  3
PageSettings/PointSize
350
130
  3
PageSettings/Scale
350
131
  3
PageSettings/ShowPaperBorders
350
132
  3
QCADVersion
350
133
  3
UnitSettings/PaperUnit
350
134
  3
ViewportCenter
350
135
  3
ViewportHeight
350
136
  3
ViewportWidth
350
137
  0
XRECORD
  5
FE
330
FB
100
AcDbXrecord
280
1
1000
#ffffff
  0
XRECORD
  5
FF
330
FB
100
AcDbXrecord
280
1
1000
FullColor
  0
XRECORD
  5
100
330
FB
100
AcDbXrecord
280
1
 90
0
  0
XRECORD
  5
101
330
FB
100
AcDbXrecord
280
1
 90
0
  0
XRECORD
  5
102
330
FB
100
AcDbXrecord
280
1
 90
46
  0
XRECORD
  5
103
330
FB
100
AcDbXrecord
280
1
1000
MS Shell Dlg 2
  0
XRECORD
  5
104
330
FB
100
AcDbXrecord
280
1
290
0
  0
XRECORD
  5
105
330
FB
100
AcDbXrecord
280
1
 90
2
  0
XRECORD
  5
106
330
FB
100
AcDbXrecord
280
1
 90
4
  0
XRECORD
  5
107
330
FB
100
AcDbXrecord
280
1
290
1
  0
XRECORD
  5
108
330
FB
100
AcDbXrecord
280
1
290
1
  0
XRECORD
  5
109
330
FB
100
AcDbXrecord
280
1
290
1
  0
XRECORD
  5
10A
330
FB
100
AcDbXrecord
280
1
290
1
  0
XRECORD
  5
10B
330
FB
100
AcDbXrecord
280
1
1000
auto
  0
XRECORD
  5
10C
330
FB
100
AcDbXrecord
280
1
1000
auto
  0
XRECORD
  5
10D
330
FB
100
AcDbXrecord
280
1
1000
auto
  0
XRECORD
  5
10E
330
FB
100
AcDbXrecord
280
1
1000
auto
  0
XRECORD
  5
10F
330
FB
100
AcDbXrecord
280
1
1000
auto
  0
XRECORD
  5
110
330
FB
100
AcDbXrecord
280
1
1000
auto
  0
XRECORD
  5
111
330
FB
100
AcDbXrecord
280
1
1000
auto
  0
XRECORD
  5
112
330
FB
100
AcDbXrecord
280
1
1000
auto
  0
XRECORD
  5
113
330
FB
100
AcDbXrecord
280
1
290
0
  0
XRECORD
  5
114
330
FB
100
AcDbXrecord
280
1
290
0
  0
XRECORD
  5
115
330
FB
100
AcDbXrecord
280
1
290
0
  0
XRECORD
  5
116
330
FB
100
AcDbXrecord
280
1
290
0
  0
XRECORD
  5
117
330
FB
100
AcDbXrecord
280
1
 90
65537
  0
XRECORD
  5
118
330
FB
100
AcDbXrecord
280
1
 90
65537
  0
XRECORD
  5
119
330
FB
100
AcDbXrecord
280
1
 90
65537
  0
XRECORD
  5
11A
330
FB
100
AcDbXrecord
280
1
 90
65537
  0
XRECORD
  5
11B
330
FB
100
AcDbXrecord
280
1
1000
auto
  0
XRECORD
  5
11C
330
FB
100
AcDbXrecord
280
1
1000
auto
  0
XRECORD
  5
11D
330
FB
100
AcDbXrecord
280
1
1000
auto
  0
XRECORD
  5
11E
330
FB
100
AcDbXrecord
280
1
1000
auto
  0
XRECORD
  5
11F
330
FB
100
AcDbXrecord
280
1
1000
auto
  0
XRECORD
  5
120
330
FB
100
AcDbXrecord
280
1
1000
auto
  0
XRECORD
  5
121
330
FB
100
AcDbXrecord
280
1
1000
auto
  0
XRECORD
  5
122
330
FB
100
AcDbXrecord
280
1
1000
auto
  0
XRECORD
  5
123
330
FB
100
AcDbXrecord
280
1
 90
1
  0
XRECORD
  5
124
330
FB
100
AcDbXrecord
280
1
 40
10.0
  0
XRECORD
  5
125
330
FB
100
AcDbXrecord
280
1
 40
10.0
  0
XRECORD
  5
126
330
FB
100
AcDbXrecord
280
1
 40
10.0
  0
XRECORD
  5
127
330
FB
100
AcDbXrecord
280
1
 40
10.0
  0
XRECORD
  5
128
330
FB
100
AcDbXrecord
280
1
290
0
  0
XRECORD
  5
129
330
FB
100
AcDbXrecord
280
1
 90
1
  0
XRECORD
  5
12A
330
FB
100
AcDbXrecord
280
1
 40
0.0
  0
XRECORD
  5
12B
330
FB
100
AcDbXrecord
280
1
 40
0.0
  0
XRECORD
  5
12C
330
FB
100
AcDbXrecord
280
1
1000
Portrait
  0
XRECORD
  5
12D
330
FB
100
AcDbXrecord
280
1
1000
465.5
  0
XRECORD
  5
12E
330
FB
100
AcDbXrecord
280
1
1000
Custom
  0
XRECORD
  5
12F
330
FB
100
AcDbXrecord
280
1
1000
335
  0
XRECORD
  5
130
330
FB
100
AcDbXrecord
280
1
1000
1
  0
XRECORD
  5
131
330
FB
100
AcDbXrecord
280
1
1000
1:2
  0
XRECORD
  5
132
330
FB
100
AcDbXrecord
280
1
290
0
  0
XRECORD
  5
133
330
FB
100
AcDbXrecord
280
1
1000
3.23.0
  0
XRECORD
  5
134
330
FB
100
AcDbXrecord
280
1
 90
4
  0
XRECORD
  5
136
330
FB
100
AcDbXrecord
280
1
 40
555.35918439863133
  0
XRECORD
  5
137
330
FB
100
AcDbXrecord
280
1
 40
1158.4746370811949
  0
ENDSEC
  0
EOF
